<?xml version="1.0" encoding="UTF-8" standalone="no"?>
<!-- Created with Inkscape (http://www.inkscape.org/) -->

<svg
   xmlns:dc="http://purl.org/dc/elements/1.1/"
   xmlns:cc="http://creativecommons.org/ns#"
   xmlns:rdf="http://www.w3.org/1999/02/22-rdf-syntax-ns#"
   xmlns:svg="http://www.w3.org/2000/svg"
   xmlns="http://www.w3.org/2000/svg"
   xmlns:sodipodi="http://sodipodi.sourceforge.net/DTD/sodipodi-0.dtd"
   xmlns:inkscape="http://www.inkscape.org/namespaces/inkscape"
   width="210mm"
   height="297mm"
   viewBox="0 0 210 297"
   version="1.1"
   id="svg8"
   inkscape:version="0.92.4 (5da689c313, 2019-01-14)"
   sodipodi:docname="cart.svg">
  <defs
     id="defs2" />
  <sodipodi:namedview
     id="base"
     pagecolor="#ffffff"
     bordercolor="#666666"
     borderopacity="1.0"
     inkscape:pageopacity="0.0"
     inkscape:pageshadow="2"
     inkscape:zoom="1"
     inkscape:cx="214"
     inkscape:cy="605.10346"
     inkscape:document-units="mm"
     inkscape:current-layer="layer2"
     showgrid="false"
     inkscape:snap-global="false"
     inkscape:window-width="1920"
     inkscape:window-height="986"
     inkscape:window-x="-11"
     inkscape:window-y="-11"
     inkscape:window-maximized="1" />
  <metadata
     id="metadata5">
    <rdf:RDF>
      <cc:Work
         rdf:about="">
        <dc:format>image/svg+xml</dc:format>
        <dc:type
           rdf:resource="http://purl.org/dc/dcmitype/StillImage" />
        <dc:title></dc:title>
      </cc:Work>
    </rdf:RDF>
  </metadata>
  <g
     inkscape:label="Layer 1"
     inkscape:groupmode="layer"
     id="layer1">
    <path
       style="fill:#4c000a;fill-opacity:1;stroke-width:0.38936031"
       d="m 155.47738,115.90248 c 2.69253,0 4.86017,2.06507 4.86017,4.63021 0,2.56514 -2.16764,4.63021 -4.86017,4.63021 h -9.45783 l -3.73465,13.46119 -0.077,-0.0155 -8.00364,30.84256 v -1.16117 h -0.061 c -0.67974,5.23383 -5.33745,9.26042 -11.02103,9.26042 H 81.688577 a 12.832292,12.832292 0 0 1 11.03498,12.69018 12.832292,12.832292 0 0 1 -12.83229,12.83229 12.832292,12.832292 0 0 1 -12.83229,-12.83229 12.832292,12.832292 0 0 1 11.01742,-12.69018 h -2.16731 c -5.68359,0 -10.34079,-4.02659 -11.02052,-9.26042 h -0.0884 v 1.16117 l -10.7058,-41.25536 h 10.7058 63.358413 l -2.75849,9.78958 h -51.865053 -8.05377 l 5.10718,19.68149 2.94659,11.35486 v -0.87385 h 52.212323 v 0.87385 l 2.91558,-11.23497 5.13819,-19.80138 h -0.062 l 6.06113,-21.51083 c 0.69503,-0.36424 1.49376,-0.57206 2.34611,-0.57206 z m -37.48609,61.77039 a 12.832291,12.832291 0 0 1 12.83229,12.83229 12.832291,12.832291 0 0 1 -12.83229,12.83229 12.832291,12.832291 0 0 1 -12.83229,-12.83229 12.832291,12.832291 0 0 1 12.83229,-12.83229 z m -37.967713,7.40833 a 5.0270833,5.0270833 0 0 0 -5.02708,5.02709 5.0270833,5.0270833 0 0 0 5.02708,5.02708 5.0270833,5.0270833 0 0 0 5.02709,-5.02708 5.0270833,5.0270833 0 0 0 -5.02709,-5.02709 z m 38.100003,0.26459 a 5.0270833,5.0270833 0 0 0 -5.02708,5.02708 5.0270833,5.0270833 0 0 0 5.02708,5.02708 5.0270833,5.0270833 0 0 0 5.02709,-5.02708 5.0270833,5.0270833 0 0 0 -5.02709,-5.02708 z"
       id="rect3771"
       inkscape:connector-curvature="0" />
  </g>
  <g
     inkscape:groupmode="layer"
     id="layer2"
     inkscape:label="Base layer" />
</svg>
