<?xml version="1.0" encoding="UTF-8" standalone="no"?>
<!-- Created with Inkscape (http://www.inkscape.org/) -->

<svg
   xmlns:dc="http://purl.org/dc/elements/1.1/"
   xmlns:cc="http://creativecommons.org/ns#"
   xmlns:rdf="http://www.w3.org/1999/02/22-rdf-syntax-ns#"
   xmlns:svg="http://www.w3.org/2000/svg"
   xmlns="http://www.w3.org/2000/svg"
   xmlns:sodipodi="http://sodipodi.sourceforge.net/DTD/sodipodi-0.dtd"
   xmlns:inkscape="http://www.inkscape.org/namespaces/inkscape"
   width="210mm"
   height="297mm"
   viewBox="0 0 210 297"
   version="1.1"
   id="svg8"
   inkscape:version="0.92.4 (5da689c313, 2019-01-14)"
   sodipodi:docname="information.svg">
  <defs
     id="defs2" />
  <sodipodi:namedview
     id="base"
     pagecolor="#ffffff"
     bordercolor="#666666"
     borderopacity="1.0"
     inkscape:pageopacity="0.0"
     inkscape:pageshadow="2"
     inkscape:zoom="0.24748737"
     inkscape:cx="139.72902"
     inkscape:cy="1093.5576"
     inkscape:document-units="mm"
     inkscape:current-layer="layer1"
     showgrid="false"
     inkscape:window-width="1920"
     inkscape:window-height="986"
     inkscape:window-x="-11"
     inkscape:window-y="-11"
     inkscape:window-maximized="1" />
  <metadata
     id="metadata5">
    <rdf:RDF>
      <cc:Work
         rdf:about="">
        <dc:format>image/svg+xml</dc:format>
        <dc:type
           rdf:resource="http://purl.org/dc/dcmitype/StillImage" />
        <dc:title></dc:title>
      </cc:Work>
    </rdf:RDF>
  </metadata>
  <g
     inkscape:label="Layer 1"
     inkscape:groupmode="layer"
     id="layer1">
    <ellipse
       style="fill:#4c000a;fill-opacity:1;stroke-width:0.26458332"
       id="path820"
       cx="101.02788"
       cy="16.366995"
       rx="220.76462"
       ry="217.55739" />
    <path
       style="fill:#f9f0ed;fill-opacity:1;stroke-width:0.26458332"
       d="m 99.396035,-121.88683 a 42.333333,40.065475 0 0 0 -42.33334,40.065772 42.333333,40.065475 0 0 0 42.33334,40.06526 42.333333,40.065475 0 0 0 42.333325,-40.06526 42.333333,40.065475 0 0 0 -42.333325,-40.065772 z m -30.14391,102.053722 c -2.56513,0 -4.63021,2.06507 -4.63021,4.63021 V 146.38208 c 0,2.56513 2.06508,4.6302 4.63021,4.6302 h 61.043305 c 2.56514,0 4.63021,-2.06507 4.63021,-4.6302 V -15.202898 c 0,-2.56514 -2.06507,-4.63021 -4.63021,-4.63021 z"
       id="path815"
       inkscape:connector-curvature="0" />
  </g>
</svg>
