<?xml version="1.0" encoding="UTF-8" standalone="no"?>
<!-- Created with Inkscape (http://www.inkscape.org/) -->

<svg
   xmlns:dc="http://purl.org/dc/elements/1.1/"
   xmlns:cc="http://creativecommons.org/ns#"
   xmlns:rdf="http://www.w3.org/1999/02/22-rdf-syntax-ns#"
   xmlns:svg="http://www.w3.org/2000/svg"
   xmlns="http://www.w3.org/2000/svg"
   xmlns:sodipodi="http://sodipodi.sourceforge.net/DTD/sodipodi-0.dtd"
   xmlns:inkscape="http://www.inkscape.org/namespaces/inkscape"
   width="210mm"
   height="297mm"
   viewBox="0 0 210 297"
   version="1.1"
   id="svg8"
   inkscape:version="0.92.4 (5da689c313, 2019-01-14)"
   sodipodi:docname="logo border.svg">
  <defs
     id="defs2" />
  <sodipodi:namedview
     id="base"
     pagecolor="#ffffff"
     bordercolor="#666666"
     borderopacity="1.0"
     inkscape:pageopacity="0.0"
     inkscape:pageshadow="2"
     inkscape:zoom="0.5"
     inkscape:cx="-654.28572"
     inkscape:cy="720"
     inkscape:document-units="mm"
     inkscape:current-layer="layer1"
     showgrid="false"
     inkscape:snap-global="false"
     inkscape:window-width="1920"
     inkscape:window-height="986"
     inkscape:window-x="-11"
     inkscape:window-y="-11"
     inkscape:window-maximized="1" />
  <metadata
     id="metadata5">
    <rdf:RDF>
      <cc:Work
         rdf:about="">
        <dc:format>image/svg+xml</dc:format>
        <dc:type
           rdf:resource="http://purl.org/dc/dcmitype/StillImage" />
        <dc:title />
      </cc:Work>
    </rdf:RDF>
  </metadata>
  <g
     inkscape:label="Layer 1"
     inkscape:groupmode="layer"
     id="layer1">
    <rect
       style="fill:#870d1d;fill-opacity:1;stroke-width:0.26458332"
       id="rect827"
       width="401.63748"
       height="214.84166"
       x="-415.92499"
       y="19.716665"
       ry="4.6302085" />
    <path
       style="fill:#f9f0ed;fill-opacity:1;stroke-width:0.99999994"
       d="M -1292.8574 331.08984 C -1380.706 331.08984 -1451.4277 401.81357 -1451.4277 489.66211 C -1451.4277 577.51069 -1380.706 648.23437 -1292.8574 648.23438 L -415.71289 648.23438 C -327.86431 648.23438 -257.14258 577.51069 -257.14258 489.66211 C -257.14258 401.81357 -327.86431 331.08984 -415.71289 331.08984 L -1292.8574 331.08984 z M -1290 356.80469 L -417.95312 356.80469 C -344.35027 356.80469 -285.0957 416.05925 -285.0957 489.66211 C -285.0957 563.26497 -344.35027 622.51953 -417.95312 622.51953 L -1290 622.51953 C -1363.6029 622.51953 -1422.8574 563.26497 -1422.8574 489.66211 C -1422.8574 416.05925 -1363.6029 356.80469 -1290 356.80469 z M -1043.4844 377.73438 L -1043.4844 406.26953 L -1007.6641 406.26953 L -1007.6641 377.73438 L -1043.4844 377.73438 z M -1248.0918 379.19922 L -1248.0918 597.08203 L -1214.6387 597.08203 L -1214.6387 515.86914 L -1181.1855 515.86914 C -1163.1633 515.86914 -1148.2373 514.01559 -1136.4102 510.30859 C -1124.583 506.50405 -1114.3334 500.84552 -1105.6602 493.33398 C -1098.6765 487.28573 -1093.2692 480.16511 -1089.4395 471.9707 C -1085.4971 463.67875 -1083.5273 454.70457 -1083.5273 445.04688 C -1083.5273 432.36506 -1086.1747 421.87789 -1091.4688 413.58594 C -1096.6502 405.29398 -1104.0272 398.36713 -1113.6016 392.80664 C -1121.7116 388.12412 -1131.005 384.71061 -1141.4805 382.56445 C -1151.9559 380.32075 -1164.7403 379.19922 -1179.834 379.19922 L -1248.0918 379.19922 z M -1214.6387 404.07422 L -1181.5234 404.07422 C -1170.9353 404.07422 -1162.205 404.75731 -1155.334 406.12305 C -1148.3503 407.39123 -1142.1547 409.53837 -1136.748 412.5625 C -1130.5529 416.07439 -1125.9358 420.60943 -1122.8945 426.16992 C -1119.8533 431.73041 -1118.332 438.26581 -1118.332 445.77734 C -1118.332 452.2158 -1119.4582 458.02113 -1121.7109 463.19141 C -1123.8511 468.36168 -1127.5692 473.28819 -1132.8633 477.9707 C -1138.1573 482.55567 -1145.0286 485.92025 -1153.4766 488.06641 C -1161.9245 490.11501 -1172.9052 491.14062 -1186.4219 491.14062 L -1214.6387 491.14062 L -1214.6387 404.07422 z M -518.35938 429.68164 C -529.73594 429.68164 -541.28161 430.56046 -552.99609 432.31641 C -564.71058 434.07235 -573.66421 435.68124 -579.85938 437.14453 L -579.85938 465.09375 L -578.16992 465.09375 C -567.24391 461.48431 -556.65642 458.75193 -546.40625 456.89844 C -536.15608 454.94739 -526.86265 453.97266 -518.52734 453.97266 C -511.65635 453.97266 -505.06757 454.36216 -498.75977 455.14258 C -492.45197 455.923 -487.04463 457.43598 -482.53906 459.67969 C -477.80821 462.02095 -474.20463 465.24069 -471.72656 469.33789 C -469.13586 473.43509 -467.83984 478.6043 -467.83984 484.84766 L -467.83984 489.0918 C -486.31269 489.87222 -503.60352 491.04268 -519.71094 492.60352 C -535.81835 494.16435 -549.61626 497.13944 -561.10547 501.5293 C -572.48204 505.91916 -581.26773 511.96719 -587.46289 519.67383 C -593.54541 527.28292 -596.58789 537.28272 -596.58789 549.67188 C -596.58789 564.7925 -590.67283 577.22913 -578.8457 586.98438 C -567.01858 596.73962 -552.60228 601.61719 -535.59375 601.61719 C -526.35733 601.61719 -518.30264 600.83818 -511.43164 599.27734 C -504.56064 597.81406 -498.47764 595.9605 -493.18359 593.7168 C -488.67802 591.96085 -484.06093 589.61993 -479.33008 586.69336 C -474.48659 583.66923 -470.65583 581.32636 -467.83984 579.66797 L -467.83984 597.08203 L -436.24414 597.08203 L -436.24414 486.16406 C -436.24414 475.6284 -438.10322 466.80101 -441.82031 459.67969 C -445.53741 452.55836 -450.94474 446.75304 -458.04102 442.26562 C -465.24993 437.68066 -473.8104 434.46287 -483.72266 432.60938 C -493.52227 430.65833 -505.06794 429.68164 -518.35938 429.68164 z M -1041.4551 433.63281 L -1041.4551 597.08203 L -1009.6914 597.08203 L -1009.6914 433.63281 L -1041.4551 433.63281 z M -959.67969 433.63281 L -959.67969 456.60742 L -852.05273 456.60742 L -962.04492 576.74219 L -962.04492 597.08203 L -809.64453 597.08203 L -809.64453 573.81641 L -923.01562 573.81641 L -812.51758 453.24023 L -812.51758 433.63281 L -959.67969 433.63281 z M -777.88086 433.63281 L -777.88086 456.60742 L -670.25391 456.60742 L -780.24609 576.74219 L -780.24609 597.08203 L -627.84375 597.08203 L -627.84375 573.81641 L -741.2168 573.81641 L -630.7168 453.24023 L -630.7168 433.63281 L -777.88086 433.63281 z M -467.83984 511.33398 L -467.83984 556.8418 C -475.72459 562.10963 -484.28506 566.64467 -493.52148 570.44922 C -502.75791 574.15621 -512.95223 576.00977 -524.10352 576.00977 C -537.50759 576.00977 -547.47669 573.66884 -554.00977 568.98633 C -560.54284 564.20626 -563.80859 557.13456 -563.80859 547.76953 C -563.80859 539.47758 -560.99329 532.98916 -555.36133 528.30664 C -549.72936 523.52657 -542.35034 520.01519 -533.22656 517.77148 C -525.56709 515.91799 -515.20483 514.50287 -502.13867 513.52734 C -488.95988 512.55182 -477.52682 511.82175 -467.83984 511.33398 z "
       transform="scale(0.26458333)"
       id="rect817" />
    <path
       style="fill:#f9f0ed;fill-opacity:1;stroke-width:0.26458332"
       d="m -39.385337,-279.11157 c -23.24326,0 -41.95507,18.71231 -41.95507,41.95557 0,23.24327 18.71181,41.95558 41.95507,41.95558 H 192.69248 c 23.24327,0 41.95506,-18.71231 41.95506,-41.95558 0,-23.24326 -18.71179,-41.95557 -41.95506,-41.95557 z m 0.75603,6.80372 H 192.09975 c 19.47409,0 35.15186,15.67776 35.15186,35.15185 0,19.47409 -15.67777,35.15186 -35.15186,35.15186 H -38.629307 c -19.47409,0 -35.15187,-15.67777 -35.15187,-35.15186 0,-19.47409 15.67778,-35.15185 35.15187,-35.15185 z"
       id="path941"
       inkscape:connector-curvature="0" />
    <flowRoot
       xml:space="preserve"
       id="flowRoot943"
       style="fill:black;fill-opacity:1;stroke:none;font-family:sans-serif;font-style:normal;font-weight:normal;font-size:40px;line-height:1.25;letter-spacing:0px;word-spacing:0px"><flowRegion
         id="flowRegion945"><rect
           id="rect947"
           width="816"
           height="264"
           x="-1680"
           y="-845.48029" /></flowRegion><flowPara
         id="flowPara949"></flowPara></flowRoot>  </g>
</svg>
