<?xml version="1.0" encoding="UTF-8" standalone="no"?>
<!-- Created with Inkscape (http://www.inkscape.org/) -->

<svg
   xmlns:dc="http://purl.org/dc/elements/1.1/"
   xmlns:cc="http://creativecommons.org/ns#"
   xmlns:rdf="http://www.w3.org/1999/02/22-rdf-syntax-ns#"
   xmlns:svg="http://www.w3.org/2000/svg"
   xmlns="http://www.w3.org/2000/svg"
   xmlns:sodipodi="http://sodipodi.sourceforge.net/DTD/sodipodi-0.dtd"
   xmlns:inkscape="http://www.inkscape.org/namespaces/inkscape"
   width="210mm"
   height="297mm"
   viewBox="0 0 210 297"
   version="1.1"
   id="svg8"
   inkscape:version="0.92.4 (5da689c313, 2019-01-14)"
   sodipodi:docname="olive.svg">
  <defs
     id="defs2" />
  <sodipodi:namedview
     id="base"
     pagecolor="#ffffff"
     bordercolor="#666666"
     borderopacity="1.0"
     inkscape:pageopacity="0.0"
     inkscape:pageshadow="2"
     inkscape:zoom="0.35"
     inkscape:cx="-714.28572"
     inkscape:cy="560"
     inkscape:document-units="mm"
     inkscape:current-layer="layer1"
     showgrid="false"
     inkscape:window-width="1920"
     inkscape:window-height="986"
     inkscape:window-x="-11"
     inkscape:window-y="-11"
     inkscape:window-maximized="1" />
  <metadata
     id="metadata5">
    <rdf:RDF>
      <cc:Work
         rdf:about="">
        <dc:format>image/svg+xml</dc:format>
        <dc:type
           rdf:resource="http://purl.org/dc/dcmitype/StillImage" />
        <dc:title />
      </cc:Work>
    </rdf:RDF>
  </metadata>
  <g
     inkscape:label="Layer 1"
     inkscape:groupmode="layer"
     id="layer1">
    <path
       style="fill:#41362e;fill-opacity:1;stroke-width:0.02640951"
       d="m 72.571343,117.70437 a 7.5595595,8.3828774 0 0 0 -7.55959,8.38288 7.5595595,8.3828774 0 0 0 7.55959,8.38288 7.5595595,8.3828774 0 0 0 7.55954,-8.38288 7.5595595,8.3828774 0 0 0 -7.55954,-8.38288 z m 0.0717,3.76181 a 3.3265542,4.7333437 0 0 1 3.32656,4.73338 3.3265542,4.7333437 0 0 1 -3.32656,4.73333 3.3265542,4.7333437 0 0 1 -3.32656,-4.73333 3.3265542,4.7333437 0 0 1 3.32656,-4.73338 z"
       id="path815"
       inkscape:connector-curvature="0" />
    <path
       style="fill:#484537;fill-opacity:1;stroke-width:0.02596638"
       d="m 72.568153,119.73291 a 4.7110426,6.4174041 0 0 0 -4.71102,6.41743 4.7110426,6.4174041 0 0 0 4.71102,6.41742 4.7110426,6.4174041 0 0 0 4.71107,-6.41742 4.7110426,6.4174041 0 0 0 -4.71107,-6.41743 z m 0.0748,1.73327 a 3.4386417,4.6841331 0 0 1 3.43865,4.68416 3.4386417,4.6841331 0 0 1 -3.43865,4.6841 3.4386417,4.6841331 0 0 1 -3.43865,-4.6841 3.4386417,4.6841331 0 0 1 3.43865,-4.68416 z"
       id="ellipse822"
       inkscape:connector-curvature="0" />
  </g>
</svg>
