<?xml version="1.0" encoding="UTF-8" standalone="no"?>
<!-- Created with Inkscape (http://www.inkscape.org/) -->

<svg
   xmlns:dc="http://purl.org/dc/elements/1.1/"
   xmlns:cc="http://creativecommons.org/ns#"
   xmlns:rdf="http://www.w3.org/1999/02/22-rdf-syntax-ns#"
   xmlns:svg="http://www.w3.org/2000/svg"
   xmlns="http://www.w3.org/2000/svg"
   xmlns:sodipodi="http://sodipodi.sourceforge.net/DTD/sodipodi-0.dtd"
   xmlns:inkscape="http://www.inkscape.org/namespaces/inkscape"
   width="210mm"
   height="297mm"
   viewBox="0 0 210 297"
   version="1.1"
   id="svg8"
   inkscape:version="0.92.4 (5da689c313, 2019-01-14)"
   sodipodi:docname="pineapple.svg">
  <defs
     id="defs2" />
  <sodipodi:namedview
     id="base"
     pagecolor="#ffffff"
     bordercolor="#666666"
     borderopacity="1.0"
     inkscape:pageopacity="0.0"
     inkscape:pageshadow="2"
     inkscape:zoom="0.35"
     inkscape:cx="129.99999"
     inkscape:cy="560"
     inkscape:document-units="mm"
     inkscape:current-layer="layer1"
     showgrid="false"
     inkscape:snap-global="false"
     inkscape:window-width="1920"
     inkscape:window-height="986"
     inkscape:window-x="-11"
     inkscape:window-y="-11"
     inkscape:window-maximized="1" />
  <metadata
     id="metadata5">
    <rdf:RDF>
      <cc:Work
         rdf:about="">
        <dc:format>image/svg+xml</dc:format>
        <dc:type
           rdf:resource="http://purl.org/dc/dcmitype/StillImage" />
        <dc:title />
      </cc:Work>
    </rdf:RDF>
  </metadata>
  <g
     inkscape:label="Layer 1"
     inkscape:groupmode="layer"
     id="layer1">
    <path
       style="fill:#ffdd19;fill-opacity:1;stroke:#000000;stroke-width:0.137109;stroke-miterlimit:4;stroke-dasharray:none;stroke-opacity:1"
       d="m 92.982203,84.901679 a 19.33032,19.33032 0 0 0 -12.58293,4.68275 l 0.92761,1.09992 -0.22687,0.22482 -1.26374,-0.7993 a 19.33032,19.33032 0 0 0 -5.96086,11.312121 l 2.16895,0.34215 -0.0243,0.31855 -2.26638,0.34187 a 19.33032,19.33032 0 0 0 -0.10181,1.80746 19.33032,19.33032 0 0 0 0.22538,2.75597 l 1.36761,0.4096 -0.0668,0.31239 -1.18785,0.0181 a 19.33032,19.33032 0 0 0 5.17008,9.99035 l 2.09448,-1.43393 0.20101,0.24827 -1.51753,1.93819 a 19.33032,19.33032 0 0 0 4.7327,3.19575 l 0.44708,-1.25643 0.30857,0.0826 -0.0525,1.4724 a 19.33032,19.33032 0 0 0 7.60812,1.59709 19.33032,19.33032 0 0 0 3.04888,-0.26959 l -0.0952,-1.75786 0.31658,-0.0428 0.6274,1.66533 a 19.33032,19.33032 0 0 0 8.251827,-3.91002 l -1.32099,-1.98183 0.25075,-0.19797 1.86117,1.495 a 19.33032,19.33032 0 0 0 5.53901,-8.76905 l -2.28877,-1.45249 0.14893,-0.28256 2.45598,0.65142 a 19.33032,19.33032 0 0 0 0.5348,-4.47791 19.33032,19.33032 0 0 0 -2.86459,-10.059571 l -2.34877,1.36647 -0.18231,-0.2623 1.90276,-2.09357 a 19.33032,19.33032 0 0 0 -13.329227,-8.09736 l -0.24125,1.98983 -0.3192,-0.0129 -0.39096,-2.08301 a 19.33032,19.33032 0 0 0 -1.55679,-0.0779 z m -2.7379,11.2193 0.7842,1.07533 a 7.2035254,7.2035254 0 0 1 1.9537,-0.27144 7.2035254,7.2035254 0 0 1 5.42069,2.47306 l 0.67487,-0.34839 0.16877,0.27123 -0.50107,0.49838 a 7.2035254,7.2035254 0 0 1 1.440227,4.309211 7.2035254,7.2035254 0 0 1 -0.803897,3.29233 l 0.34449,0.38459 -0.22007,0.23155 -0.3532,-0.20895 a 7.2035254,7.2035254 0 0 1 -6.17081,3.50404 7.2035254,7.2035254 0 0 1 -0.82643,-0.0522 l -0.50907,0.9658 -0.29362,-0.12577 0.16969,-0.93866 a 7.2035254,7.2035254 0 0 1 -5.56161,-5.48353 l -1.45595,0.12251 -0.0522,-0.31516 1.38043,-0.5676 a 7.2035254,7.2035254 0 0 1 -0.0548,-0.80893 7.2035254,7.2035254 0 0 1 4.56782,-6.702561 l -0.39593,-1.1792 z"
       id="path840"
       inkscape:connector-curvature="0" />
    <path
       inkscape:transform-center-y="-0.28437448"
       inkscape:transform-center-x="2.2468261"
       inkscape:connector-curvature="0"
       id="path907"
       d="m 87.254663,99.725099 -3.67356,-0.82366 -0.1959,0.35119 3.1283,1.801121 z"
       style="fill:#c8ab37;fill-opacity:1;stroke-width:0.00861184" />
    <path
       inkscape:transform-center-y="1.8637691"
       inkscape:transform-center-x="-0.30687598"
       inkscape:connector-curvature="0"
       id="path909"
       d="m 92.314623,111.22491 0.54236,2.88984 0.31919,0.0129 0.34608,-2.85397 z"
       style="fill:#c8ab37;fill-opacity:1;stroke-width:0.00683926" />
    <path
       inkscape:transform-center-y="1.0562451"
       inkscape:transform-center-x="0.25130192"
       inkscape:connector-curvature="0"
       id="path911"
       d="m 87.021543,108.12558 -1.48431,1.69247 0.12481,0.21135 1.83167,-1.1042 z"
       style="fill:#c8ab37;fill-opacity:1;stroke-width:0.00517905" />
    <path
       inkscape:transform-center-y="-0.31554567"
       inkscape:transform-center-x="-2.5495358"
       inkscape:connector-curvature="0"
       id="path913"
       d="m 100.18745,103.64568 3.97449,-0.58184 -0.0364,-0.32318 -4.0757,-0.3177 z"
       style="fill:#c8ab37;fill-opacity:1;stroke-width:0.00816784" />
    <path
       inkscape:transform-center-y="-1.2335989"
       inkscape:transform-center-x="-1.149148"
       inkscape:connector-curvature="0"
       id="path915"
       d="m 99.753043,101.47133 1.973667,-2.179431 -0.18275,-0.26202 -2.482327,1.450141 z"
       style="fill:#c8ab37;fill-opacity:1;stroke-width:0.00683926" />
    <path
       inkscape:transform-center-y="0.74190763"
       inkscape:transform-center-x="-1.0609072"
       inkscape:connector-curvature="0"
       id="path917"
       d="m 97.531833,109.44581 1.84575,1.303 0.19817,-0.14424 -1.29417,-1.70448 z"
       style="fill:#c8ab37;fill-opacity:1;stroke-width:0.00517664" />
    <path
       style="fill:#c8ab37;fill-opacity:1;stroke-width:0.00683926"
       d="m 94.758913,95.120249 -0.668,1.87441 a 7.2553504,7.1517023 0 0 1 0.90536,0.17777 l 0.0712,-1.96943 z"
       id="path919"
       inkscape:connector-curvature="0" />
  </g>
</svg>
