<?xml version="1.0" encoding="UTF-8" standalone="no"?>
<!-- Created with Inkscape (http://www.inkscape.org/) -->

<svg
   xmlns:osb="http://www.openswatchbook.org/uri/2009/osb"
   xmlns:dc="http://purl.org/dc/elements/1.1/"
   xmlns:cc="http://creativecommons.org/ns#"
   xmlns:rdf="http://www.w3.org/1999/02/22-rdf-syntax-ns#"
   xmlns:svg="http://www.w3.org/2000/svg"
   xmlns="http://www.w3.org/2000/svg"
   xmlns:sodipodi="http://sodipodi.sourceforge.net/DTD/sodipodi-0.dtd"
   xmlns:inkscape="http://www.inkscape.org/namespaces/inkscape"
   width="210mm"
   height="297mm"
   viewBox="0 0 210 297"
   version="1.1"
   id="svg8"
   inkscape:version="0.92.4 (5da689c313, 2019-01-14)"
   sodipodi:docname="pizzabotten.svg">
  <defs
     id="defs2">
    <linearGradient
       id="linearGradient2906"
       osb:paint="gradient">
      <stop
         style="stop-color:#000000;stop-opacity:1;"
         offset="0"
         id="stop2902" />
      <stop
         style="stop-color:#000000;stop-opacity:0;"
         offset="1"
         id="stop2904" />
    </linearGradient>
    <filter
       inkscape:collect="always"
       style="color-interpolation-filters:sRGB"
       id="filter2922"
       x="-0.018"
       width="1.036"
       y="-0.018"
       height="1.036">
      <feGaussianBlur
         inkscape:collect="always"
         stdDeviation="1.2915446"
         id="feGaussianBlur2924" />
    </filter>
  </defs>
  <sodipodi:namedview
     id="base"
     pagecolor="#ffffff"
     bordercolor="#666666"
     borderopacity="1.0"
     inkscape:pageopacity="0.0"
     inkscape:pageshadow="2"
     inkscape:zoom="0.35355339"
     inkscape:cx="1369.7721"
     inkscape:cy="854.53483"
     inkscape:document-units="mm"
     inkscape:current-layer="layer1"
     showgrid="false"
     inkscape:window-width="1920"
     inkscape:window-height="986"
     inkscape:window-x="-11"
     inkscape:window-y="-11"
     inkscape:window-maximized="1" />
  <metadata
     id="metadata5">
    <rdf:RDF>
      <cc:Work
         rdf:about="">
        <dc:format>image/svg+xml</dc:format>
        <dc:type
           rdf:resource="http://purl.org/dc/dcmitype/StillImage" />
        <dc:title />
      </cc:Work>
    </rdf:RDF>
  </metadata>
  <g
     inkscape:label="Layer 1"
     inkscape:groupmode="layer"
     id="layer1">
    <circle
       r="106.2113"
       cy="174.82254"
       cx="402.31525"
       id="circle887"
       style="fill:#f7d6a7;fill-opacity:1;stroke-width:0.26458332" />
    <circle
       style="fill:#d40000;fill-opacity:1;stroke:none;stroke-width:0.5;stroke-miterlimit:4;stroke-dasharray:none;stroke-opacity:1"
       id="circle889"
       cx="402.31525"
       cy="174.82254"
       r="92.452972" />
    <circle
       r="86.102974"
       cy="174.82254"
       cx="402.31525"
       id="circle891"
       style="opacity:1;fill:#ffe680;fill-opacity:1;stroke-width:0.21449138;filter:url(#filter2922)" />
    <path
       style="opacity:0.87900002;fill:#ffeeaa;fill-opacity:1;stroke-width:0.01393072"
       d="m 431.48517,241.967 c -0.19759,-0.60175 -2.16069,0.89443 -4.50175,3.44824 l -5.08518,5.5473 c -2.41656,2.63618 -4.2937,5.372 -4.20879,6.13396 l 0.0986,0.88364 c 0.0849,0.76196 2.09871,-0.74671 4.51529,-3.38288 l 5.08515,-5.54725 c 2.41656,-2.63622 4.29372,-5.37201 4.2088,-6.13398 l -0.0987,-0.88397 c -0.003,-0.024 -0.007,-0.0456 -0.0134,-0.065 z m -2.45212,-7.86814 c -0.005,-0.02 -0.0139,-0.0372 -0.0229,-0.0522 l -0.34527,-0.54078 c -0.29778,-0.46602 -2.22978,2.09384 -4.33176,5.73953 l -4.42306,7.67134 c -2.10198,3.64572 -3.55453,6.95606 -3.25677,7.42209 l 0.34561,0.54084 c 0.29779,0.46601 2.22941,-2.09385 4.3314,-5.73954 l 4.42333,-7.67168 c 2.03631,-3.53176 3.46297,-6.74829 3.27943,-7.3696 z m -10.3898,9.45281 c -0.19759,-0.60176 -2.16071,0.89447 -4.50176,3.44827 l -5.08517,5.54728 c -2.41657,2.63618 -4.29372,5.37201 -4.20881,6.13398 l 0.0986,0.88362 c 0.0849,0.76196 2.09871,-0.7467 4.51527,-3.38288 l 5.08516,-5.54724 c 2.41658,-2.63622 4.29372,-5.372 4.20882,-6.134 l -0.0987,-0.88399 c -0.003,-0.0233 -0.007,-0.0456 -0.0134,-0.065 z"
       id="path893"
       inkscape:connector-curvature="0" />
    <path
       style="opacity:0.87900002;fill:#ffeeaa;fill-opacity:1;stroke-width:0.01393072"
       d="m 451.99197,119.75084 c -0.19759,-0.60175 -2.16069,0.89443 -4.50175,3.44824 l -5.08518,5.5473 c -2.41656,2.63618 -4.2937,5.372 -4.20879,6.13396 l 0.0986,0.88364 c 0.0849,0.76196 2.09871,-0.74671 4.51529,-3.38288 l 5.08515,-5.54725 c 2.41656,-2.63622 4.29372,-5.37201 4.2088,-6.13398 l -0.0987,-0.88397 c -0.003,-0.024 -0.007,-0.0456 -0.0134,-0.065 z m -2.45212,-7.86814 c -0.005,-0.02 -0.0139,-0.0372 -0.0229,-0.0522 l -0.34527,-0.54078 c -0.29778,-0.46602 -2.22978,2.09384 -4.33176,5.73953 l -4.42306,7.67134 c -2.10198,3.64572 -3.55453,6.95606 -3.25677,7.42209 l 0.34561,0.54084 c 0.29779,0.46601 2.22941,-2.09385 4.3314,-5.73954 l 4.42333,-7.67168 c 2.03631,-3.53176 3.46297,-6.74829 3.27943,-7.3696 z m -10.3898,9.45281 c -0.19759,-0.60176 -2.16071,0.89447 -4.50176,3.44827 l -5.08517,5.54728 c -2.41657,2.63618 -4.29372,5.37201 -4.20881,6.13398 l 0.0986,0.88362 c 0.0849,0.76196 2.09871,-0.7467 4.51527,-3.38288 l 5.08516,-5.54724 c 2.41658,-2.63622 4.29372,-5.372 4.20882,-6.134 l -0.0987,-0.88399 c -0.003,-0.0233 -0.007,-0.0456 -0.0134,-0.065 z"
       id="path895"
       inkscape:connector-curvature="0" />
    <path
       inkscape:transform-center-y="-1.122532"
       style="opacity:0.87900002;fill:#ffeeaa;fill-opacity:1;stroke-width:0.01393072"
       d="m 392.44141,163.89783 c -0.4622,0.43303 1.72256,1.58157 5.02567,2.62654 l 7.17491,2.26986 c 3.40965,1.07867 6.68204,1.62624 7.33703,1.22777 l 0.75954,-0.46222 c 0.65499,-0.39846 -1.56249,-1.58771 -4.97213,-2.6664 l -7.17485,-2.26985 c -3.40969,-1.07865 -6.68206,-1.62626 -7.33705,-1.22777 l -0.7598,0.46245 c -0.0205,0.0128 -0.0384,0.0256 -0.0533,0.0396 z m -6.0989,5.54291 c -0.016,0.013 -0.0279,0.0283 -0.0377,0.0428 l -0.34461,0.5412 c -0.29687,0.46661 2.83914,1.13816 7.03131,1.50568 l 8.82127,0.77338 c 4.1922,0.36752 7.80632,0.28774 8.10321,-0.17885 l 0.34452,-0.54153 c 0.29685,-0.46661 -2.83899,-1.13781 -7.03117,-1.50535 l -8.82169,-0.77348 c -4.06117,-0.35606 -7.57932,-0.29239 -8.06518,0.13616 z m 12.9539,5.43138 c -0.4622,0.43303 1.72261,1.58157 5.02571,2.62653 l 7.17489,2.26986 c 3.40964,1.07868 6.68205,1.62626 7.33705,1.22778 l 0.75951,-0.46221 c 0.655,-0.39846 -1.56247,-1.58771 -4.97211,-2.66638 l -7.17485,-2.26986 c -3.40969,-1.07867 -6.68204,-1.62626 -7.33708,-1.22778 l -0.75981,0.46246 c -0.0199,0.0125 -0.0384,0.0256 -0.0533,0.0396 z"
       id="path897"
       inkscape:connector-curvature="0" />
    <path
       style="opacity:0.87900002;fill:#ffe680;fill-opacity:1;stroke-width:0.01370314"
       d="m 456.88985,126.31185 c -0.38342,-0.49797 -1.58558,1.66788 -2.75076,4.98306 l -2.53098,7.20113 c -1.20277,3.42211 -1.89705,6.73516 -1.5567,7.4282 l 0.3948,0.80365 c 0.34036,0.69303 1.58267,-1.50386 2.78544,-4.92597 l 2.53098,-7.20108 c 1.20276,-3.42215 1.89706,-6.73518 1.55671,-7.42821 l -0.395,-0.80394 c -0.0107,-0.0218 -0.0222,-0.0407 -0.0345,-0.0568 z m -4.89791,-6.56092 c -0.0122,-0.0169 -0.0252,-0.0302 -0.0383,-0.0411 l -0.49185,-0.38415 c -0.42406,-0.33093 -1.22789,2.83539 -1.80226,7.09932 l -1.20863,8.97223 c -0.57435,4.26394 -0.69537,7.96325 -0.27132,8.29421 l 0.49217,0.38405 c 0.42407,0.33093 1.22757,-2.83527 1.80195,-7.09918 l 1.20875,-8.97266 c 0.55644,-4.13067 0.68743,-7.73092 0.30952,-8.25281 z m -5.82735,12.92282 c -0.38342,-0.49797 -1.58559,1.66791 -2.75076,4.98308 l -2.53098,7.20112 c -1.20277,3.42212 -1.89706,6.73518 -1.5567,7.42821 l 0.3948,0.80364 c 0.34035,0.69302 1.58268,-1.50385 2.78544,-4.92596 l 2.53098,-7.20109 c 1.20276,-3.42215 1.89705,-6.73516 1.55671,-7.42822 l -0.395,-0.80396 c -0.0109,-0.021 -0.0222,-0.0406 -0.0345,-0.0568 z"
       id="path899"
       inkscape:connector-curvature="0" />
    <path
       inkscape:connector-curvature="0"
       id="path901"
       d="m 472.75771,169.92877 c 0.55595,-0.30342 -1.27138,-1.9627 -4.20733,-3.80191 l -6.37738,-3.99507 c -3.03064,-1.89853 -6.06147,-3.24851 -6.79541,-3.02685 l -0.85111,0.25718 c -0.73394,0.22167 1.11486,1.92853 4.1455,3.82707 l 6.37732,3.99506 c 3.03069,1.89852 6.06149,3.24852 6.79543,3.02685 l 0.85143,-0.25733 c 0.0231,-0.007 0.0435,-0.0153 0.0615,-0.025 z m 7.29311,-3.83809 c 0.0187,-0.009 0.0341,-0.0204 0.0472,-0.032 l 0.46922,-0.4376 c 0.4043,-0.37734 -2.46343,-1.81317 -6.42982,-3.21929 l -8.34616,-2.95881 c -3.96641,-1.40611 -7.48525,-2.23437 -7.88957,-1.85704 l -0.46921,0.43794 c -0.40429,0.37735 2.46337,1.81281 6.42976,3.21894 l 8.34654,2.95901 c 3.84244,1.36219 7.26433,2.182 7.84206,1.88884 z m -11.17997,-8.50364 c 0.55596,-0.30343 -1.27141,-1.96272 -4.20735,-3.80192 l -6.37736,-3.99507 c -3.03065,-1.89853 -6.06149,-3.24852 -6.79543,-3.02686 l -0.8511,0.25719 c -0.73393,0.22167 1.11486,1.92854 4.1455,3.82706 l 6.37732,3.99507 c 3.03069,1.89853 6.06148,3.24852 6.79545,3.02686 l 0.85145,-0.25733 c 0.0224,-0.007 0.0435,-0.0153 0.0615,-0.025 z"
       style="opacity:0.87900002;fill:#ffeeaa;fill-opacity:1;stroke-width:0.01393072" />
    <path
       style="opacity:0.87900002;fill:#ffe680;fill-opacity:1;stroke-width:0.01393072"
       d="m 443.65354,170.72252 c 0.55595,-0.30342 -1.27138,-1.9627 -4.20733,-3.80191 l -6.37738,-3.99507 c -3.03064,-1.89853 -6.06147,-3.24851 -6.79541,-3.02685 l -0.85111,0.25718 c -0.73394,0.22167 1.11486,1.92853 4.1455,3.82707 l 6.37732,3.99506 c 3.03069,1.89852 6.06149,3.24852 6.79543,3.02685 l 0.85143,-0.25733 c 0.0231,-0.007 0.0435,-0.0153 0.0615,-0.025 z m 7.29311,-3.83809 c 0.0187,-0.009 0.0341,-0.0204 0.0472,-0.032 l 0.46922,-0.4376 c 0.4043,-0.37734 -2.46343,-1.81317 -6.42982,-3.21929 l -8.34616,-2.95881 c -3.96641,-1.40611 -7.48525,-2.23437 -7.88957,-1.85704 l -0.46921,0.43794 c -0.40429,0.37735 2.46337,1.81281 6.42976,3.21894 l 8.34654,2.95901 c 3.84244,1.36219 7.26433,2.182 7.84206,1.88884 z m -11.17997,-8.50364 c 0.55596,-0.30343 -1.27141,-1.96272 -4.20735,-3.80192 l -6.37736,-3.99507 c -3.03065,-1.89853 -6.06149,-3.24852 -6.79543,-3.02686 l -0.8511,0.25719 c -0.73393,0.22167 1.11486,1.92854 4.1455,3.82706 l 6.37732,3.99507 c 3.03069,1.89853 6.06148,3.24852 6.79545,3.02686 l 0.85145,-0.25733 c 0.0224,-0.007 0.0435,-0.0153 0.0615,-0.025 z"
       id="path903"
       inkscape:connector-curvature="0" />
    <path
       inkscape:connector-curvature="0"
       id="path905"
       d="m 428.45385,112.32774 c -0.1028,-0.62496 -2.27245,0.55188 -4.97805,2.71574 l -5.877,4.70025 c -2.79286,2.23364 -5.068,4.64861 -5.10116,5.41457 l -0.0383,0.88829 c -0.0331,0.76597 2.18851,-0.41543 4.98137,-2.64906 l 5.87698,-4.7002 c 2.79286,-2.23369 5.06802,-4.64863 5.10116,-5.4146 l 0.0383,-0.88864 c 10e-4,-0.0241 -8e-5,-0.0461 -0.003,-0.0663 z m -1.21428,-8.15144 c -0.002,-0.0206 -0.008,-0.0389 -0.0146,-0.0551 l -0.25809,-0.58741 c -0.22266,-0.50623 -2.52497,1.72644 -5.16207,5.00595 l -5.54905,6.90079 c -2.6371,3.27953 -4.58095,6.32742 -4.35832,6.83367 l 0.25842,0.58751 c 0.22267,0.50622 2.52461,-1.7265 5.16172,-5.006 l 5.54937,-6.90109 c 2.55469,-3.17702 4.45856,-6.13619 4.37264,-6.77832 z m -11.71864,7.74449 c -0.10281,-0.62498 -2.27248,0.55191 -4.97806,2.71575 l -5.877,4.70024 c -2.79286,2.23364 -5.06802,4.64862 -5.10117,5.41459 l -0.0383,0.88828 c -0.0331,0.76596 2.18852,-0.41543 4.98136,-2.64907 l 5.87699,-4.7002 c 2.79287,-2.23368 5.06802,-4.64861 5.10118,-5.41461 l 0.0383,-0.88866 c 7.9e-4,-0.0235 -8e-5,-0.0461 -0.003,-0.0663 z"
       style="opacity:0.87900002;fill:#ffeeaa;fill-opacity:1;stroke-width:0.01393072" />
    <path
       style="opacity:0.87900002;fill:#ffe680;fill-opacity:1;stroke-width:0.01393072"
       d="m 380.40775,129.42226 c 0.59717,0.211 0.61119,-2.25722 0.0185,-5.67061 l -1.28742,-7.41446 c -0.61181,-3.52347 -1.63193,-6.68064 -2.28717,-7.07872 l -0.75994,-0.46153 c -0.65525,-0.39807 -0.69033,2.11792 -0.0785,5.64141 l 1.28738,7.4144 c 0.61185,3.5235 1.63194,6.68067 2.28719,7.07873 l 0.76027,0.46167 c 0.0204,0.0127 0.0405,0.0221 0.0596,0.0291 z m 7.72807,2.86308 c 0.0192,0.008 0.038,0.0117 0.0553,0.0138 l 0.63908,0.0568 c 0.55088,0.0488 -0.2964,-3.04437 -1.89974,-6.93523 l -3.37374,-8.18723 c -1.60335,-3.89087 -3.33771,-7.06265 -3.88859,-7.11146 l -0.63933,-0.0566 c -0.55088,-0.0488 0.29663,3.04409 1.89995,6.93496 l 3.37385,8.18764 c 1.55322,3.76928 3.2291,6.86328 3.8332,7.09735 z m -1.14072,-14.00008 c 0.59719,0.211 0.61118,-2.25726 0.0185,-5.67064 l -1.28741,-7.41444 c -0.61181,-3.52348 -1.63194,-6.680661 -2.28718,-7.078731 l -0.75994,-0.46152 c -0.65524,-0.39807 -0.69033,2.11792 -0.0785,5.641401 l 1.28738,7.4144 c 0.61184,3.52352 1.63192,6.68067 2.28718,7.07876 l 0.76029,0.46168 c 0.02,0.0122 0.0404,0.0222 0.0596,0.029 z"
       id="path907"
       inkscape:connector-curvature="0" />
    <path
       inkscape:connector-curvature="0"
       id="path909"
       d="m 376.72091,158.4508 c -0.34037,-0.53413 -1.87211,1.40136 -3.50828,4.45512 l -3.55405,6.63327 c -1.68895,3.15224 -2.8306,6.26753 -2.55975,6.98478 l 0.31423,0.83174 c 0.27086,0.71724 1.8486,-1.24289 3.53756,-4.39514 l 3.55405,-6.63321 c 1.68893,-3.15229 2.8306,-6.26755 2.55974,-6.9848 l -0.31439,-0.83205 c -0.009,-0.0226 -0.0182,-0.0424 -0.0291,-0.0597 z m -4.32314,-7.01647 c -0.0103,-0.018 -0.0227,-0.0326 -0.0351,-0.0449 l -0.46837,-0.43851 c -0.40385,-0.37782 -1.64219,2.58056 -2.7765,6.63306 l -2.38685,8.52736 c -1.13429,4.05252 -1.72237,7.61937 -1.31852,7.99721 l 0.4687,0.43848 c 0.40387,0.37781 1.64184,-2.58047 2.77616,-6.63298 l 2.38702,-8.52775 c 1.09887,-3.92586 1.68508,-7.39541 1.35347,-7.95196 z m -7.72706,11.73014 c -0.34038,-0.53414 -1.87212,1.4014 -3.50829,4.45514 l -3.55405,6.63325 c -1.68895,3.15226 -2.83061,6.26755 -2.55976,6.9848 l 0.31424,0.83173 c 0.27086,0.71724 1.84862,-1.24289 3.53756,-4.39514 l 3.55405,-6.63321 c 1.68895,-3.15229 2.8306,-6.26754 2.55975,-6.98482 l -0.31439,-0.83207 c -0.009,-0.0219 -0.0182,-0.0424 -0.0291,-0.0597 z"
       style="opacity:0.87900002;fill:#ffe680;fill-opacity:1;stroke-width:0.01393072" />
    <path
       style="opacity:0.87900002;fill:#ffeeaa;fill-opacity:1;stroke-width:0.01393072"
       d="m 377.24313,235.54544 c 0.55595,-0.30342 -1.27138,-1.9627 -4.20733,-3.80191 l -6.37738,-3.99507 c -3.03064,-1.89853 -6.06147,-3.24851 -6.79541,-3.02685 l -0.85111,0.25718 c -0.73394,0.22167 1.11486,1.92853 4.1455,3.82707 l 6.37732,3.99506 c 3.03069,1.89852 6.06149,3.24852 6.79543,3.02685 l 0.85143,-0.25733 c 0.0231,-0.007 0.0435,-0.0153 0.0615,-0.025 z m 7.29311,-3.83809 c 0.0187,-0.009 0.0341,-0.0204 0.0472,-0.032 l 0.46922,-0.4376 c 0.4043,-0.37734 -2.46343,-1.81317 -6.42982,-3.21929 l -8.34616,-2.95881 c -3.96641,-1.40611 -7.48525,-2.23437 -7.88957,-1.85704 l -0.46921,0.43794 c -0.40429,0.37735 2.46337,1.81281 6.42976,3.21894 l 8.34654,2.95901 c 3.84244,1.36219 7.26433,2.182 7.84206,1.88884 z m -11.17997,-8.50364 c 0.55596,-0.30343 -1.27141,-1.96272 -4.20735,-3.80192 l -6.37736,-3.99507 c -3.03065,-1.89853 -6.06149,-3.24852 -6.79543,-3.02686 l -0.8511,0.25719 c -0.73393,0.22167 1.11486,1.92854 4.1455,3.82706 l 6.37732,3.99507 c 3.03069,1.89853 6.06148,3.24852 6.79545,3.02686 l 0.85145,-0.25733 c 0.0224,-0.007 0.0435,-0.0153 0.0615,-0.025 z"
       id="path911"
       inkscape:connector-curvature="0" />
    <path
       inkscape:connector-curvature="0"
       id="path913"
       d="m 426.50862,185.48025 c -0.19759,-0.60175 -2.16069,0.89443 -4.50175,3.44824 l -5.08518,5.5473 c -2.41656,2.63618 -4.2937,5.372 -4.20879,6.13396 l 0.0986,0.88364 c 0.0849,0.76196 2.09871,-0.74671 4.51529,-3.38288 l 5.08515,-5.54725 c 2.41656,-2.63622 4.29372,-5.37201 4.2088,-6.13398 l -0.0987,-0.88397 c -0.003,-0.024 -0.007,-0.0456 -0.0134,-0.065 z m -2.45212,-7.86814 c -0.005,-0.02 -0.0139,-0.0372 -0.0229,-0.0522 l -0.34527,-0.54078 c -0.29778,-0.46602 -2.22978,2.09384 -4.33176,5.73953 l -4.42306,7.67134 c -2.10198,3.64572 -3.55453,6.95606 -3.25677,7.42209 l 0.34561,0.54084 c 0.29779,0.46601 2.22941,-2.09385 4.3314,-5.73954 l 4.42333,-7.67168 c 2.03631,-3.53176 3.46297,-6.74829 3.27943,-7.3696 z m -10.3898,9.45281 c -0.19759,-0.60176 -2.16071,0.89447 -4.50176,3.44827 l -5.08517,5.54728 c -2.41657,2.63618 -4.29372,5.37201 -4.20881,6.13398 l 0.0986,0.88362 c 0.0849,0.76196 2.09871,-0.7467 4.51527,-3.38288 l 5.08516,-5.54724 c 2.41658,-2.63622 4.29372,-5.372 4.20882,-6.134 l -0.0987,-0.88399 c -0.003,-0.0233 -0.007,-0.0456 -0.0134,-0.065 z"
       style="opacity:0.87900002;fill:#ffeeaa;fill-opacity:1;stroke-width:0.01393072" />
    <path
       style="opacity:0.87900002;fill:#ffe680;fill-opacity:1;stroke-width:0.01393072"
       d="m 446.03479,240.8371 c 0.55595,-0.30342 -1.27138,-1.9627 -4.20733,-3.80191 l -6.37738,-3.99507 c -3.03064,-1.89853 -6.06147,-3.24851 -6.79541,-3.02685 l -0.85111,0.25718 c -0.73394,0.22167 1.11486,1.92853 4.1455,3.82707 l 6.37732,3.99506 c 3.03069,1.89852 6.06149,3.24852 6.79543,3.02685 l 0.85143,-0.25733 c 0.0231,-0.007 0.0435,-0.0153 0.0615,-0.025 z m 7.29311,-3.83809 c 0.0187,-0.009 0.0341,-0.0204 0.0472,-0.032 l 0.46922,-0.4376 c 0.4043,-0.37734 -2.46343,-1.81317 -6.42982,-3.21929 l -8.34616,-2.95881 c -3.96641,-1.40611 -7.48525,-2.23437 -7.88957,-1.85704 l -0.46921,0.43794 c -0.40429,0.37735 2.46337,1.81281 6.42976,3.21894 l 8.34654,2.95901 c 3.84244,1.36219 7.26433,2.182 7.84206,1.88884 z m -11.17997,-8.50364 c 0.55596,-0.30343 -1.27141,-1.96272 -4.20735,-3.80192 l -6.37736,-3.99507 c -3.03065,-1.89853 -6.06149,-3.24852 -6.79543,-3.02686 l -0.8511,0.25719 c -0.73393,0.22167 1.11486,1.92854 4.1455,3.82706 l 6.37732,3.99507 c 3.03069,1.89853 6.06148,3.24852 6.79545,3.02686 l 0.85145,-0.25733 c 0.0224,-0.007 0.0435,-0.0153 0.0615,-0.025 z"
       id="path915"
       inkscape:connector-curvature="0" />
    <path
       inkscape:connector-curvature="0"
       id="path917"
       d="m 471.87963,191.50907 c -0.0121,-0.63325 -2.32812,0.22009 -5.31622,1.97332 l -6.49063,3.8083 c -3.08447,1.80977 -5.6826,3.87328 -5.82532,4.62656 l -0.16539,0.8736 c -0.14271,0.75329 2.22547,-0.0971 5.30994,-1.90686 l 6.49061,-3.80825 c 3.08448,-1.80982 5.68261,-3.8733 5.82532,-4.62659 l 0.16541,-0.87395 c 0.004,-0.0237 0.007,-0.0456 0.006,-0.0661 z m -0.032,-8.24132 c 6.6e-4,-0.0207 -0.002,-0.0397 -0.007,-0.0566 l -0.17113,-0.61837 c -0.14771,-0.53294 -2.74657,1.34626 -5.82696,4.21343 l -6.48185,6.03313 c -3.08039,2.86718 -5.44148,5.6046 -5.29379,6.13756 l 0.17144,0.61851 c 0.14772,0.53294 2.74623,-1.34637 5.82663,-4.21353 l 6.48219,-6.03337 c 2.98414,-2.77756 5.29292,-5.43292 5.30003,-6.08074 z m -12.70865,5.9828 c -0.0121,-0.63326 -2.32815,0.22011 -5.31623,1.97333 l -6.49063,3.80829 c -3.08447,1.80978 -5.68262,3.87329 -5.82534,4.62657 l -0.16537,0.8736 c -0.14271,0.75328 2.22548,-0.0971 5.30994,-1.90687 l 6.49061,-3.80825 c 3.08449,-1.80981 5.68261,-3.87329 5.82534,-4.62659 l 0.16541,-0.87397 c 0.004,-0.0231 0.007,-0.0457 0.006,-0.0661 z"
       style="opacity:0.87900002;fill:#ffeeaa;fill-opacity:1;stroke-width:0.01393072" />
    <path
       style="opacity:0.87900002;fill:#ffeeaa;fill-opacity:1;stroke-width:0.01393072"
       d="m 410.10445,227.01984 c -0.19759,-0.60175 -2.16069,0.89443 -4.50175,3.44824 l -5.08518,5.5473 c -2.41656,2.63618 -4.2937,5.372 -4.20879,6.13396 l 0.0986,0.88364 c 0.0849,0.76196 2.09871,-0.74671 4.51529,-3.38288 l 5.08515,-5.54725 c 2.41656,-2.63622 4.29372,-5.37201 4.2088,-6.13398 l -0.0987,-0.88397 c -0.003,-0.024 -0.007,-0.0456 -0.0134,-0.065 z m -2.45212,-7.86814 c -0.005,-0.02 -0.0139,-0.0372 -0.0229,-0.0522 l -0.34527,-0.54078 c -0.29778,-0.46602 -2.22978,2.09384 -4.33176,5.73953 l -4.42306,7.67134 c -2.10198,3.64572 -3.55453,6.95606 -3.25677,7.42209 l 0.34561,0.54084 c 0.29779,0.46601 2.22941,-2.09385 4.3314,-5.73954 l 4.42333,-7.67168 c 2.03631,-3.53176 3.46297,-6.74829 3.27943,-7.3696 z m -10.3898,9.45281 c -0.19759,-0.60176 -2.16071,0.89447 -4.50176,3.44827 l -5.08517,5.54728 c -2.41657,2.63618 -4.29372,5.37201 -4.20881,6.13398 l 0.0986,0.88362 c 0.0849,0.76196 2.09871,-0.7467 4.51527,-3.38288 l 5.08516,-5.54724 c 2.41658,-2.63622 4.29372,-5.372 4.20882,-6.134 l -0.0987,-0.88399 c -0.003,-0.0233 -0.007,-0.0456 -0.0134,-0.065 z"
       id="path919"
       inkscape:connector-curvature="0" />
    <path
       style="opacity:0.87900002;fill:#ffeeaa;fill-opacity:1;stroke-width:0.01393072"
       d="m 412.4857,141.55942 c -0.19759,-0.60175 -2.16069,0.89443 -4.50175,3.44824 l -5.08518,5.5473 c -2.41656,2.63618 -4.2937,5.372 -4.20879,6.13396 l 0.0986,0.88364 c 0.0849,0.76196 2.09871,-0.74671 4.51529,-3.38288 l 5.08515,-5.54725 c 2.41656,-2.63622 4.29372,-5.37201 4.2088,-6.13398 l -0.0987,-0.88397 c -0.003,-0.024 -0.007,-0.0456 -0.0134,-0.065 z m -2.45212,-7.86814 c -0.005,-0.02 -0.0139,-0.0372 -0.0229,-0.0522 l -0.34527,-0.54078 c -0.29778,-0.46602 -2.22978,2.09384 -4.33176,5.73953 l -4.42306,7.67134 c -2.10198,3.64572 -3.55453,6.95606 -3.25677,7.42209 l 0.34561,0.54084 c 0.29779,0.46601 2.22941,-2.09385 4.3314,-5.73954 l 4.42333,-7.67168 c 2.03631,-3.53176 3.46297,-6.74829 3.27943,-7.3696 z m -10.3898,9.45281 c -0.19759,-0.60176 -2.16071,0.89447 -4.50176,3.44827 l -5.08517,5.54728 c -2.41657,2.63618 -4.29372,5.37201 -4.20881,6.13398 l 0.0986,0.88362 c 0.0849,0.76196 2.09871,-0.7467 4.51527,-3.38288 l 5.08516,-5.54724 c 2.41658,-2.63622 4.29372,-5.372 4.20882,-6.134 l -0.0987,-0.88399 c -0.003,-0.0233 -0.007,-0.0456 -0.0134,-0.065 z"
       id="path921"
       inkscape:connector-curvature="0" />
    <path
       inkscape:connector-curvature="0"
       id="path923"
       d="m 350.56719,168.15783 c 0.46156,-0.43371 -1.72488,-1.57904 -5.02953,-2.61915 l -7.17823,-2.25931 c -3.41123,-1.07366 -6.68442,-1.61642 -7.33883,-1.21699 l -0.75885,0.46333 c -0.65441,0.39943 1.56481,1.58541 4.97604,2.65909 l 7.17818,2.25931 c 3.41126,1.07364 6.68443,1.61643 7.33885,1.21699 l 0.75911,-0.46357 c 0.0205,-0.0129 0.0384,-0.0256 0.0532,-0.0396 z m 6.09075,-5.55187 c 0.016,-0.013 0.0278,-0.0283 0.0376,-0.0428 l 0.34381,-0.5417 c 0.29618,-0.46704 -2.8408,-1.13398 -7.03351,-1.49535 l -8.8224,-0.76041 c -4.19273,-0.36136 -7.80673,-0.27627 -8.10293,0.19075 l -0.34373,0.54204 c -0.29617,0.46704 2.84066,1.13364 7.03337,1.49502 l 8.82282,0.76051 c 4.06169,0.35009 7.57974,0.28125 8.06497,-0.14801 z m -12.96187,-5.41233 c 0.46157,-0.43372 -1.72493,-1.57904 -5.02956,-2.61915 l -7.17821,-2.25932 c -3.41123,-1.07366 -6.68444,-1.61643 -7.33885,-1.21699 l -0.75884,0.46333 c -0.65441,0.39942 1.56481,1.58541 4.97603,2.65906 l 7.17818,2.25932 c 3.41127,1.07366 6.68442,1.61644 7.33887,1.217 l 0.75913,-0.46357 c 0.0198,-0.0126 0.0384,-0.0256 0.0532,-0.0397 z"
       style="opacity:0.87900002;fill:#ffeeaa;fill-opacity:1;stroke-width:0.01393072" />
    <path
       style="opacity:0.87900002;fill:#ffeeaa;fill-opacity:1;stroke-width:0.01393072"
       d="m 382.02393,177.33048 c -0.62202,-0.11929 -0.26662,2.32325 0.83006,5.60956 l 2.38217,7.1384 c 1.13206,3.3923 2.61304,6.36132 3.32045,6.65688 l 0.82045,0.34265 c 0.70741,0.29557 0.3657,-2.19737 -0.76634,-5.58967 l -2.38215,-7.13836 c -1.13209,-3.39231 -2.61303,-6.36133 -3.32046,-6.65689 l -0.82078,-0.34273 c -0.0224,-0.009 -0.0433,-0.016 -0.0633,-0.0198 z m -8.06944,-1.67469 c -0.0199,-0.005 -0.0393,-0.006 -0.0568,-0.005 l -0.64039,0.0394 c -0.55197,0.0342 0.74853,2.96577 2.91591,6.57296 l 4.56063,7.59036 c 2.16741,3.60721 4.35677,6.48383 4.90874,6.44967 l 0.64061,-0.0397 c 0.55197,-0.0342 -0.74871,-2.96546 -2.91609,-6.57266 l -4.56079,-7.59076 c -2.09964,-3.49448 -4.21955,-6.30294 -4.85186,-6.444 z m 3.22238,13.67186 c -0.62204,-0.11929 -0.2666,2.32329 0.83008,5.60958 l 2.38216,7.13839 c 1.13205,3.3923 2.61303,6.36133 3.32045,6.6569 l 0.82043,0.34264 c 0.70741,0.29557 0.36571,-2.19736 -0.76635,-5.58965 l -2.38213,-7.13836 c -1.13208,-3.39233 -2.61302,-6.36133 -3.32047,-6.65693 l -0.8208,-0.34273 c -0.0218,-0.009 -0.0433,-0.016 -0.0633,-0.0198 z"
       id="path925"
       inkscape:connector-curvature="0" />
    <path
       inkscape:connector-curvature="0"
       id="path927"
       d="m 333.9158,180.80575 c -0.61676,0.14409 0.7016,2.23077 3.04039,4.78666 l 5.08024,5.55182 c 2.41423,2.63832 4.97499,4.74803 5.74146,4.73023 l 0.88888,-0.0208 c 0.76647,-0.0178 -0.55989,-2.15608 -2.9741,-4.79442 l -5.08019,-5.55179 c -2.41427,-2.63832 -4.975,-4.74804 -5.74148,-4.73024 l -0.88922,0.0208 c -0.0242,8.8e-4 -0.046,0.003 -0.0659,0.008 z m -8.05279,1.75305 c -0.0204,0.003 -0.0383,0.0106 -0.054,0.0182 l -0.56896,0.29654 c -0.49032,0.25579 1.89035,2.40472 5.33777,4.81815 l 7.25414,5.07842 c 3.44745,2.41344 6.61774,4.15054 7.10808,3.89478 l 0.56905,-0.29688 c 0.49031,-0.2558 -1.89039,-2.40435 -5.33781,-4.81779 l -7.25446,-5.07872 c -3.33969,-2.33803 -6.41879,-4.04112 -7.0538,-3.91275 z m 8.50578,11.17834 c -0.61676,0.14409 0.70164,2.2308 3.04042,4.78667 l 5.08023,5.55182 c 2.41422,2.63832 4.97499,4.74804 5.74147,4.73024 l 0.88886,-0.0208 c 0.76647,-0.0178 -0.55987,-2.15608 -2.9741,-4.7944 l -5.08018,-5.55179 c -2.41427,-2.63835 -4.97499,-4.74805 -5.7415,-4.73026 l -0.88924,0.0208 c -0.0235,9.4e-4 -0.046,0.003 -0.0659,0.008 z"
       style="opacity:0.87900002;fill:#ffe680;fill-opacity:1;stroke-width:0.01393072" />
    <path
       inkscape:connector-curvature="0"
       id="path929"
       d="m 344.05809,138.87978 c 0.35843,0.52218 1.82311,-1.46454 3.35395,-4.57244 l 3.32524,-6.75088 c 1.58021,-3.20813 2.61471,-6.36062 2.3195,-7.06819 l -0.34247,-0.82051 c -0.29522,-0.70757 -1.80505,1.30535 -3.38527,4.51349 l -3.32524,6.75081 c -1.5802,3.20818 -2.61471,6.36065 -2.31949,7.06821 l 0.34265,0.82082 c 0.009,0.0223 0.0197,0.0417 0.0311,0.0586 z m 4.56045,6.8646 c 0.0109,0.0177 0.0238,0.0318 0.0366,0.0437 l 0.48308,0.42225 c 0.41653,0.36379 1.55303,-2.63518 2.54815,-6.72409 l 2.09398,-8.60396 c 0.99511,-4.08893 1.46092,-7.67379 1.0444,-8.03761 l -0.48342,-0.4222 c -0.41654,-0.36378 -1.55268,2.63508 -2.54781,6.72399 l -2.09414,8.60436 c -0.96403,3.96113 -1.43131,7.44869 -1.08087,7.99359 z m 7.32159,-11.98741 c 0.35844,0.52219 1.82312,-1.46457 3.35396,-4.57246 l 3.32524,-6.75086 c 1.58021,-3.20814 2.61471,-6.36064 2.3195,-7.06821 l -0.34248,-0.8205 c -0.29521,-0.70756 -1.80505,1.30535 -3.38526,4.51349 l -3.32524,6.75081 c -1.58021,3.20819 -2.61472,6.36064 -2.31951,7.06824 l 0.34266,0.82083 c 0.009,0.0216 0.0196,0.0417 0.0311,0.0586 z"
       style="opacity:0.87900002;fill:#ffeeaa;fill-opacity:1;stroke-width:0.01393072" />
    <path
       inkscape:connector-curvature="0"
       id="path931"
       d="m 334.36872,193.73722 c 0.13665,0.61844 2.23905,-0.67471 4.82292,-2.98256 l 5.61257,-5.01303 c 2.6672,-2.38229 4.80758,-4.91748 4.79901,-5.6841 l -0.0101,-0.88907 c -0.009,-0.76663 -2.16267,0.53389 -4.82987,2.91616 l -5.61255,5.013 c -2.66719,2.38233 -4.80759,4.91748 -4.79901,5.68412 l 0.0101,0.8894 c 6e-4,0.0241 0.002,0.0461 0.007,0.066 z m 1.65598,8.0733 c 0.003,0.0202 0.01,0.0385 0.0179,0.0541 l 0.28965,0.5725 c 0.24988,0.49335 2.42731,-1.86127 4.88206,-5.27939 l 5.16538,-7.19247 c 2.45476,-3.41816 4.22991,-6.5673 3.98007,-7.06067 l -0.29001,-0.57258 c -0.24988,-0.49336 -2.42695,1.8613 -4.88171,5.27942 l -5.16569,7.19279 c -2.37806,3.3113 -4.1181,6.36968 -3.99737,7.00619 z m 11.27993,-8.37059 c 0.13666,0.61845 2.23908,-0.67474 4.82293,-2.98259 l 5.61257,-5.01302 c 2.6672,-2.38228 4.80758,-4.91747 4.79902,-5.6841 l -0.0101,-0.88905 c -0.009,-0.76663 -2.16267,0.53388 -4.82985,2.91617 l -5.61256,5.01298 c -2.66721,2.38232 -4.80759,4.91746 -4.79904,5.68413 l 0.0101,0.88943 c 3.6e-4,0.0236 0.002,0.0461 0.007,0.066 z"
       style="opacity:0.87900002;fill:#ffeeaa;fill-opacity:1;stroke-width:0.01393072" />
    <path
       style="opacity:0.87900002;fill:#ffeeaa;fill-opacity:1;stroke-width:0.01393072"
       d="m 382.43457,111.42057 c 0.35843,0.52218 1.82311,-1.46454 3.35395,-4.57244 l 3.32524,-6.75088 c 1.58021,-3.208131 2.61471,-6.360621 2.3195,-7.068191 l -0.34247,-0.82051 c -0.29522,-0.70757 -1.80505,1.30535 -3.38527,4.51349 l -3.32524,6.750811 c -1.5802,3.20818 -2.61471,6.36065 -2.31949,7.06821 l 0.34265,0.82082 c 0.009,0.0223 0.0197,0.0417 0.0311,0.0586 z m 4.56045,6.8646 c 0.0109,0.0177 0.0238,0.0318 0.0366,0.0437 l 0.48308,0.42225 c 0.41653,0.36379 1.55303,-2.63518 2.54815,-6.72409 l 2.09398,-8.60396 c 0.99511,-4.088931 1.46092,-7.673791 1.0444,-8.037611 l -0.48342,-0.4222 c -0.41654,-0.36378 -1.55268,2.63508 -2.54781,6.723991 l -2.09414,8.60436 c -0.96403,3.96113 -1.43131,7.44869 -1.08087,7.99359 z m 7.32159,-11.98741 c 0.35844,0.52219 1.82312,-1.46457 3.35396,-4.57246 l 3.32524,-6.750861 c 1.58021,-3.20814 2.61471,-6.36064 2.3195,-7.06821 l -0.34248,-0.8205 c -0.29521,-0.70756 -1.80505,1.30535 -3.38526,4.51349 l -3.32524,6.75081 c -1.58021,3.208191 -2.61472,6.360641 -2.31951,7.068241 l 0.34266,0.82083 c 0.009,0.0216 0.0196,0.0417 0.0311,0.0586 z"
       id="path933"
       inkscape:connector-curvature="0" />
    <path
       inkscape:connector-curvature="0"
       id="path935"
       d="m 364.00961,135.43139 c -0.62202,-0.11929 -0.26662,2.32325 0.83006,5.60956 l 2.38217,7.1384 c 1.13206,3.3923 2.61304,6.36132 3.32045,6.65688 l 0.82045,0.34265 c 0.70741,0.29557 0.3657,-2.19737 -0.76634,-5.58967 l -2.38215,-7.13836 c -1.13209,-3.39231 -2.61303,-6.36133 -3.32046,-6.65689 l -0.82078,-0.34273 c -0.0224,-0.009 -0.0433,-0.016 -0.0633,-0.0198 z m -8.06944,-1.67469 c -0.0199,-0.005 -0.0393,-0.006 -0.0568,-0.005 l -0.64039,0.0394 c -0.55197,0.0342 0.74853,2.96577 2.91591,6.57296 l 4.56063,7.59036 c 2.16741,3.60721 4.35677,6.48383 4.90874,6.44967 l 0.64061,-0.0397 c 0.55197,-0.0342 -0.74871,-2.96546 -2.91609,-6.57266 l -4.56079,-7.59076 c -2.09964,-3.49448 -4.21955,-6.30294 -4.85186,-6.444 z m 3.22238,13.67186 c -0.62204,-0.11929 -0.2666,2.32329 0.83008,5.60958 l 2.38216,7.13839 c 1.13205,3.3923 2.61303,6.36133 3.32045,6.6569 l 0.82043,0.34264 c 0.70741,0.29557 0.36571,-2.19736 -0.76635,-5.58965 l -2.38213,-7.13836 c -1.13208,-3.39233 -2.61302,-6.36133 -3.32047,-6.65693 l -0.8208,-0.34273 c -0.0218,-0.009 -0.0433,-0.016 -0.0633,-0.0198 z"
       style="opacity:0.87900002;fill:#ffeeaa;fill-opacity:1;stroke-width:0.01393072" />
    <path
       style="opacity:0.87900002;fill:#ffeeaa;fill-opacity:1;stroke-width:0.01393072"
       d="m 426.50862,185.48025 c -0.19759,-0.60175 -2.16069,0.89443 -4.50175,3.44824 l -5.08518,5.5473 c -2.41656,2.63618 -4.2937,5.372 -4.20879,6.13396 l 0.0986,0.88364 c 0.0849,0.76196 2.09871,-0.74671 4.51529,-3.38288 l 5.08515,-5.54725 c 2.41656,-2.63622 4.29372,-5.37201 4.2088,-6.13398 l -0.0987,-0.88397 c -0.003,-0.024 -0.007,-0.0456 -0.0134,-0.065 z m -2.45212,-7.86814 c -0.005,-0.02 -0.0139,-0.0372 -0.0229,-0.0522 l -0.34527,-0.54078 c -0.29778,-0.46602 -2.22978,2.09384 -4.33176,5.73953 l -4.42306,7.67134 c -2.10198,3.64572 -3.55453,6.95606 -3.25677,7.42209 l 0.34561,0.54084 c 0.29779,0.46601 2.22941,-2.09385 4.3314,-5.73954 l 4.42333,-7.67168 c 2.03631,-3.53176 3.46297,-6.74829 3.27943,-7.3696 z m -10.3898,9.45281 c -0.19759,-0.60176 -2.16071,0.89447 -4.50176,3.44827 l -5.08517,5.54728 c -2.41657,2.63618 -4.29372,5.37201 -4.20881,6.13398 l 0.0986,0.88362 c 0.0849,0.76196 2.09871,-0.7467 4.51527,-3.38288 l 5.08516,-5.54724 c 2.41658,-2.63622 4.29372,-5.372 4.20882,-6.134 l -0.0987,-0.88399 c -0.003,-0.0233 -0.007,-0.0456 -0.0134,-0.065 z"
       id="path937"
       inkscape:connector-curvature="0" />
    <path
       inkscape:connector-curvature="0"
       id="path939"
       d="m 427.74542,212.25721 c -0.44456,0.45113 1.78427,1.51161 5.12644,2.424 l 7.25973,1.98187 c 3.44996,0.94181 6.74159,1.35842 7.38016,0.93414 l 0.7405,-0.49215 c 0.63858,-0.42427 -1.62457,-1.52412 -5.07453,-2.46595 l -7.25968,-1.98186 c -3.44999,-0.9418 -6.7416,-1.35844 -7.38018,-0.93415 l -0.74074,0.49239 c -0.02,0.0136 -0.0373,0.0271 -0.0517,0.0417 z m -5.87296,5.78177 c -0.0155,0.0136 -0.0267,0.0294 -0.0359,0.0442 l -0.32275,0.55452 c -0.27802,0.47807 2.88227,1.024 7.08577,1.22402 l 8.84509,0.42092 c 4.20353,0.2 7.81159,-0.0239 8.08963,-0.50192 l 0.32265,-0.55485 c 0.27801,-0.47807 -2.88212,-1.02367 -7.08561,-1.2237 l -8.84553,-0.421 c -4.07214,-0.19378 -7.58495,0.0102 -8.05333,0.45775 z m 13.16023,4.91037 c -0.44456,0.45112 1.78432,1.5116 5.12647,2.42399 l 7.25972,1.98187 c 3.44996,0.94181 6.7416,1.35843 7.38018,0.93415 l 0.74048,-0.49214 c 0.63858,-0.42427 -1.62456,-1.52412 -5.07452,-2.46593 l -7.25967,-1.98188 c -3.45,-0.94181 -6.74159,-1.35844 -7.38021,-0.93416 l -0.74076,0.4924 c -0.0193,0.0133 -0.0373,0.0271 -0.0516,0.0417 z"
       style="opacity:0.87900002;fill:#ffeeaa;fill-opacity:1;stroke-width:0.01393072" />
    <path
       style="opacity:0.87900002;fill:#ffeeaa;fill-opacity:1;stroke-width:0.01393072"
       d="m 430.71751,171.01986 c 0.13665,0.61844 2.23905,-0.67471 4.82292,-2.98256 l 5.61257,-5.01303 c 2.6672,-2.38229 4.80758,-4.91748 4.79901,-5.6841 l -0.0101,-0.88907 c -0.009,-0.76663 -2.16267,0.53389 -4.82987,2.91616 l -5.61255,5.013 c -2.66719,2.38233 -4.80759,4.91748 -4.79901,5.68412 l 0.0101,0.8894 c 6e-4,0.0241 0.002,0.0461 0.007,0.066 z m 1.65598,8.0733 c 0.003,0.0202 0.01,0.0385 0.0179,0.0541 l 0.28965,0.5725 c 0.24988,0.49335 2.42731,-1.86127 4.88206,-5.27939 l 5.16538,-7.19247 c 2.45476,-3.41816 4.22991,-6.5673 3.98007,-7.06067 l -0.29001,-0.57258 c -0.24988,-0.49336 -2.42695,1.8613 -4.88171,5.27942 l -5.16569,7.19279 c -2.37806,3.3113 -4.1181,6.36968 -3.99737,7.00619 z m 11.27993,-8.37059 c 0.13666,0.61845 2.23908,-0.67474 4.82293,-2.98259 l 5.61257,-5.01302 c 2.6672,-2.38228 4.80758,-4.91747 4.79902,-5.6841 l -0.0101,-0.88905 c -0.009,-0.76663 -2.16267,0.53388 -4.82985,2.91617 l -5.61256,5.01298 c -2.66721,2.38232 -4.80759,4.91746 -4.79904,5.68413 l 0.0101,0.88943 c 3.6e-4,0.0236 0.002,0.0461 0.007,0.066 z"
       id="path941"
       inkscape:connector-curvature="0" />
  </g>
</svg>
