<?xml version="1.0" encoding="UTF-8" standalone="no"?>
<!-- Created with Inkscape (http://www.inkscape.org/) -->

<svg
   xmlns:dc="http://purl.org/dc/elements/1.1/"
   xmlns:cc="http://creativecommons.org/ns#"
   xmlns:rdf="http://www.w3.org/1999/02/22-rdf-syntax-ns#"
   xmlns:svg="http://www.w3.org/2000/svg"
   xmlns="http://www.w3.org/2000/svg"
   xmlns:sodipodi="http://sodipodi.sourceforge.net/DTD/sodipodi-0.dtd"
   xmlns:inkscape="http://www.inkscape.org/namespaces/inkscape"
   width="210mm"
   height="297mm"
   viewBox="0 0 210 297"
   version="1.1"
   id="svg8"
   inkscape:version="0.92.4 (5da689c313, 2019-01-14)"
   sodipodi:docname="shrimp.svg">
  <defs
     id="defs2" />
  <sodipodi:namedview
     id="base"
     pagecolor="#ffffff"
     bordercolor="#666666"
     borderopacity="1.0"
     inkscape:pageopacity="0.0"
     inkscape:pageshadow="2"
     inkscape:zoom="0.35"
     inkscape:cx="358.57142"
     inkscape:cy="560"
     inkscape:document-units="mm"
     inkscape:current-layer="layer1"
     showgrid="false"
     inkscape:snap-global="false"
     inkscape:window-width="1920"
     inkscape:window-height="986"
     inkscape:window-x="-11"
     inkscape:window-y="-11"
     inkscape:window-maximized="1" />
  <metadata
     id="metadata5">
    <rdf:RDF>
      <cc:Work
         rdf:about="">
        <dc:format>image/svg+xml</dc:format>
        <dc:type
           rdf:resource="http://purl.org/dc/dcmitype/StillImage" />
        <dc:title />
      </cc:Work>
    </rdf:RDF>
  </metadata>
  <g
     inkscape:label="Layer 1"
     inkscape:groupmode="layer"
     id="layer1">
    <path
       sodipodi:nodetypes="ccsccsc"
       inkscape:connector-curvature="0"
       id="path934"
       d="m 41.941945,155.54616 -1.839666,3.26836 c -1.518943,2.69859 1.599418,5.48446 5.792998,7.84489 4.19358,2.36042 8.792483,2.08822 10.311426,-0.61036 l -0.705704,-1.98511 c -4.869679,0.58957 -5.952151,0.2551 -9.525596,-3.89317 -1.654592,-1.92075 -1.943632,-3.90732 -4.033458,-4.62461 z"
       style="fill:#de8787;fill-opacity:1;stroke-width:0.03753368" />
    <path
       style="fill:#de8787;fill-opacity:1;stroke-width:0.03753368"
       d="m 43.872248,180.27655 -1.839665,-3.26836 c -1.518944,-2.69859 1.599418,-5.48446 5.792998,-7.84489 4.19358,-2.36043 8.792483,-2.08822 10.311426,0.61036 l -0.705704,1.98511 c -4.869679,-0.58957 -5.952151,-0.2551 -9.525596,3.89317 -1.654592,1.92075 -1.943631,3.90732 -4.033459,4.62461 z"
       id="rect929"
       inkscape:connector-curvature="0"
       sodipodi:nodetypes="ccsccsc" />
    <rect
       style="fill:#e9afaf;fill-opacity:1;stroke-width:0.02633744"
       id="rect925"
       width="11.70714"
       height="9.437624"
       x="171.20596"
       y="8.8223085"
       ry="3.3107805"
       transform="matrix(0.40329801,0.9150687,-0.95109845,0.30888791,0,0)"
       rx="5.5857892" />
    <path
       inkscape:connector-curvature="0"
       id="path923"
       d="m 63.870679,159.13858 c -2.116892,-1.36368 -4.389244,-1.76514 -5.713748,-0.84559 l -2.711423,1.88239 c -0.378448,0.26275 -0.647534,0.61159 -0.812502,1.02304 1.812304,-0.009 4.14093,1.10473 5.976458,3.0127 l 0.436281,0.45348 c 1.980624,2.0588 2.779846,4.41139 2.175013,5.91993 0.676632,-0.003 1.281458,-0.16264 1.761557,-0.49595 l 2.711369,-1.88244 c 1.766003,-1.22607 1.158324,-4.32262 -1.362513,-6.94295 l -0.436279,-0.45348 c -0.630207,-0.65509 -1.318582,-1.21657 -2.024213,-1.67113 z"
       style="fill:#ffd5d5;fill-opacity:1;stroke-width:0.03071253" />
    <path
       style="fill:#e9afaf;fill-opacity:1;stroke-width:0.03445424"
       d="m 67.093393,154.21078 c -2.436817,-1.25926 -4.873744,-1.35712 -6.099977,-0.0527 l -2.510256,2.67036 c -0.350369,0.37272 -0.572213,0.82898 -0.674956,1.34189 1.888185,-0.31017 4.503653,0.61874 6.738731,2.56698 l 0.531244,0.46304 c 2.411757,2.10224 3.641145,4.7467 3.264455,6.62725 0.704961,-0.1158 1.308774,-0.40397 1.753251,-0.87681 l 2.510194,-2.67039 c 1.634976,-1.73929 0.480062,-5.29352 -2.5895,-7.96914 l -0.531243,-0.46305 c -0.767388,-0.6689 -1.579669,-1.21772 -2.391943,-1.63747 z"
       id="rect906"
       inkscape:connector-curvature="0" />
    <path
       inkscape:connector-curvature="0"
       id="path921"
       d="m 66.919835,149.05967 c -2.928605,-0.40427 -5.408741,0.40024 -6.133853,2.21398 l -1.484418,3.71289 c -0.207185,0.51824 -0.253295,1.07561 -0.158158,1.64765 1.772573,-1.0251 4.752632,-1.03108 7.745162,0.1653 l 0.711271,0.28434 c 3.229086,1.29095 5.482603,3.58599 5.83143,5.68333 0.661797,-0.38273 1.155644,-0.90723 1.418477,-1.56466 l 1.484345,-3.71291 c 0.966817,-2.41831 -1.56346,-5.68792 -5.673274,-7.33098 l -0.71127,-0.28434 c -1.027452,-0.41077 -2.05351,-0.67984 -3.029712,-0.8146 z"
       style="fill:#ffd5d5;fill-opacity:1;stroke-width:0.03753368" />
    <path
       inkscape:connector-curvature="0"
       id="path915"
       d="m 66.567569,143.75943 c -2.945249,0.25626 -5.184757,1.59152 -5.488928,3.52101 l -0.622707,3.94985 c -0.08691,0.55131 -0.0081,1.105 0.211737,1.64163 1.500625,-1.39319 4.404924,-2.0609 7.588429,-1.55904 l 0.756657,0.11926 c 3.435156,0.54153 6.142119,2.27874 6.948055,4.24622 0.560263,-0.52015 0.925283,-1.14123 1.035537,-1.84062 l 0.622634,-3.94985 c 0.405561,-2.57264 -2.787703,-5.19861 -7.159793,-5.88785 l -0.756656,-0.11926 c -1.093022,-0.17231 -2.153216,-0.20678 -3.134965,-0.12135 z"
       style="fill:#e9afaf;fill-opacity:1;stroke-width:0.03753368" />
    <path
       style="fill:#ffd5d5;fill-opacity:1;stroke-width:0.03753368"
       d="m 64.582892,138.37807 c -2.779352,1.00765 -4.598418,2.87562 -4.394352,4.81824 l 0.417707,3.97676 c 0.05831,0.55507 0.277362,1.06966 0.628212,1.53138 1.090261,-1.73325 3.723871,-3.12785 6.929055,-3.46454 l 0.761805,-0.08 c 3.458549,-0.36331 6.522134,0.61648 7.80851,2.30934 0.407052,-0.64712 0.599428,-1.34137 0.525459,-2.04552 L 76.841513,141.447 c -0.272088,-2.59017 -4.03486,-4.30312 -8.436723,-3.84072 l -0.761805,0.08 c -1.100466,0.1156 -2.133643,0.3559 -3.060093,0.69179 z"
       id="path917"
       inkscape:connector-curvature="0" />
    <path
       inkscape:connector-curvature="0"
       id="path919"
       d="m 61.717567,135.77136 c -2.553083,1.54708 -3.915717,3.63145 -3.213724,5.30645 l 1.437016,3.42892 c 0.20058,0.4786 0.553363,0.88351 1.025915,1.21055 0.660115,-1.79357 2.967112,-3.64957 6.121949,-4.70165 l 0.749833,-0.25007 c 3.404221,-1.13524 6.751794,-0.98641 8.484375,0.21265 0.246454,-0.66964 0.263826,-1.33061 0.0094,-1.93775 l -1.437083,-3.42888 c -0.93599,-2.23334 -5.17757,-2.86808 -9.51029,-1.4232 l -0.749833,0.25007 c -1.08318,0.36122 -2.066508,0.81722 -2.917535,1.33291 z"
       style="fill:#e9afaf;fill-opacity:1;stroke-width:0.03671305" />
  </g>
</svg>
