<svg xmlns="http://www.w3.org/2000/svg" width="210mm" height="297mm" viewBox="0 0 210 297"><path d="M40.746 144.132c-5.26 0-9.525 4.025-9.525 8.99.492 4.296 3.802 3.607 3.968 4.27.914-1.504 1.336-3.366 2.163-4.768A3.342 6.195 2.628 0138.588 158a3.342 6.195 2.628 01-2.303 5.437h8.986v-.033a6.195 3.342 87.372 01-2.478-5.55 6.195 3.342 87.372 011.155-5.261h-6.577c.712-1.192 1.724-2.044 3.596-2.045 3.815.004 4.49 4.21 5.542 6.539.095-.502 3.759-.62 3.762-3.963 0-4.966-4.265-8.991-9.525-8.991z" fill="#f4e3d7"/><path d="M40.99 149.129c-3.669 0-6.35 2.642-6.35 5.178.003.348 1.04 1.476 1.155 1.814.889-1.07 1.63-2.4 3.14-3.002a2.035 5.634 1.433 01.51 4.295 2.035 5.634 1.433 01-1.402 4.947h5.47v-.03a5.634 2.035 88.567 01-1.509-5.05 5.634 2.035 88.567 01.483-4.213c1.695.547 2.896 1.814 3.871 2.797.066-.256 1.077-1.59 1.08-1.85 0-2.537-2.78-4.886-6.448-4.886z" fill="#c8b7b7"/></svg>