<svg xmlns="http://www.w3.org/2000/svg" width="210mm" height="297mm" viewBox="0 0 210 297"><path d="M72.571 117.704a7.56 8.383 0 00-7.56 8.383 7.56 8.383 0 007.56 8.383 7.56 8.383 0 007.56-8.383 7.56 8.383 0 00-7.56-8.383zm.072 3.762a3.327 4.733 0 013.327 4.734 3.327 4.733 0 01-3.327 4.733 3.327 4.733 0 01-3.327-4.733 3.327 4.733 0 013.327-4.734z" fill="#41362e"/><path d="M72.568 119.733a4.711 6.417 0 00-4.71 6.417 4.711 6.417 0 004.71 6.418 4.711 6.417 0 004.711-6.418 4.711 6.417 0 00-4.71-6.417zm.075 1.733a3.439 4.684 0 013.439 4.684 3.439 4.684 0 01-3.439 4.684 3.439 4.684 0 01-3.439-4.684 3.439 4.684 0 013.439-4.684z" fill="#484537"/></svg>