<svg xmlns="http://www.w3.org/2000/svg" width="210mm" height="297mm" viewBox="0 0 210 297"><path d="M92.982 84.902A19.33 19.33 0 0080.4 89.584l.928 1.1-.227.225-1.264-.8a19.33 19.33 0 00-5.96 11.313l2.168.342-.024.319-2.266.342a19.33 19.33 0 00-.102 1.807 19.33 19.33 0 00.225 2.756l1.368.41-.067.312-1.188.018a19.33 19.33 0 005.17 9.99l2.095-1.433.2.248-1.517 1.938a19.33 19.33 0 004.733 3.196l.447-1.257.309.083-.053 1.472a19.33 19.33 0 007.608 1.597 19.33 19.33 0 003.05-.27l-.096-1.757.316-.043.628 1.665a19.33 19.33 0 008.252-3.91l-1.321-1.981.25-.198 1.862 1.495a19.33 19.33 0 005.539-8.77l-2.29-1.452.15-.282 2.456.651a19.33 19.33 0 00.535-4.478 19.33 19.33 0 00-2.865-10.06l-2.349 1.367-.182-.262 1.903-2.094a19.33 19.33 0 00-13.33-8.097l-.24 1.99-.32-.013-.391-2.083a19.33 19.33 0 00-1.557-.078zM90.244 96.12l.785 1.075a7.204 7.204 0 011.953-.271 7.204 7.204 0 015.42 2.473l.676-.348.169.27-.502.5a7.204 7.204 0 011.44 4.308 7.204 7.204 0 01-.803 3.293l.344.384-.22.232-.353-.21a7.204 7.204 0 01-6.17 3.505 7.204 7.204 0 01-.827-.052l-.51.966-.293-.126.17-.939a7.204 7.204 0 01-5.562-5.483l-1.456.122-.052-.315 1.38-.568a7.204 7.204 0 01-.054-.809 7.204 7.204 0 014.567-6.702l-.395-1.18z" fill="#ffdd19" stroke="#000" stroke-width=".137"/><path d="M87.255 99.725l-3.674-.824-.196.352 3.129 1.8zm5.06 11.5l.542 2.89.32.013.345-2.854zm-5.293-3.099l-1.485 1.692.125.211 1.832-1.104zm13.165-4.48l3.975-.582-.036-.323-4.076-.318zm-.434-2.175l1.974-2.18-.183-.261-2.482 1.45zm-2.221 7.975l1.846 1.303.198-.144-1.294-1.705zM94.759 95.12l-.668 1.875a7.255 7.152 0 01.905.177l.071-1.969z" fill="#c8ab37"/></svg>