<svg xmlns="http://www.w3.org/2000/svg" width="210mm" height="297mm" viewBox="0 0 210 297"><defs><filter id="a" x="-.018" width="1.036" y="-.018" height="1.036" color-interpolation-filters="sRGB"><feGaussianBlur stdDeviation="1.292"/></filter></defs><circle r="106.211" cy="174.823" cx="402.315" fill="#f7d6a7"/><circle cx="402.315" cy="174.823" r="92.453" fill="#d40000"/><circle r="86.103" cy="174.823" cx="402.315" fill="#ffe680" filter="url(#a)"/><path d="M431.485 241.967c-.197-.602-2.16.894-4.502 3.448l-5.085 5.548c-2.416 2.636-4.293 5.372-4.209 6.134l.099.883c.085.762 2.099-.747 4.515-3.383l5.085-5.547c2.417-2.636 4.294-5.372 4.21-6.134l-.1-.884a.345.345 0 00-.013-.065zm-2.452-7.868a.192.192 0 00-.023-.052l-.345-.541c-.298-.466-2.23 2.094-4.332 5.74l-4.423 7.67c-2.102 3.646-3.554 6.957-3.257 7.423l.346.54c.298.467 2.23-2.093 4.331-5.739l4.424-7.672c2.036-3.531 3.463-6.748 3.28-7.37zm-10.39 9.453c-.197-.602-2.16.894-4.502 3.448l-5.085 5.547c-2.416 2.636-4.293 5.372-4.208 6.134l.098.884c.085.762 2.099-.747 4.515-3.383l5.086-5.547c2.416-2.637 4.293-5.372 4.208-6.134l-.098-.884a.357.357 0 00-.014-.065zm33.349-123.802c-.198-.6-2.16.895-4.502 3.45l-5.085 5.546c-2.417 2.637-4.294 5.372-4.209 6.134l.099.884c.085.762 2.099-.747 4.515-3.383l5.085-5.547c2.417-2.636 4.294-5.372 4.21-6.134l-.1-.884a.345.345 0 00-.013-.065zm-2.452-7.867a.192.192 0 00-.023-.052l-.345-.541c-.298-.466-2.23 2.094-4.332 5.74l-4.423 7.67c-2.102 3.646-3.555 6.957-3.257 7.423l.346.54c.297.467 2.23-2.093 4.331-5.739l4.423-7.672c2.037-3.531 3.463-6.748 3.28-7.37zm-10.39 9.453c-.198-.602-2.16.894-4.502 3.448l-5.085 5.547c-2.416 2.636-4.294 5.372-4.209 6.134l.099.884c.085.762 2.099-.747 4.515-3.383l5.085-5.547c2.417-2.637 4.294-5.372 4.21-6.134l-.1-.884a.357.357 0 00-.013-.065zm-46.709 42.562c-.462.433 1.723 1.581 5.026 2.626l7.175 2.27c3.41 1.079 6.682 1.626 7.337 1.228l.76-.462c.655-.399-1.563-1.588-4.973-2.667l-7.174-2.27c-3.41-1.078-6.682-1.626-7.337-1.227l-.76.462a.342.342 0 00-.054.04zm-6.098 5.543a.193.193 0 00-.038.043l-.345.54c-.297.467 2.84 1.139 7.032 1.506l8.82.774c4.193.367 7.807.288 8.104-.179l.345-.542c.296-.466-2.84-1.137-7.032-1.505l-8.821-.773c-4.062-.356-7.58-.293-8.066.136zm12.953 5.431c-.462.433 1.723 1.582 5.026 2.627l7.175 2.27c3.41 1.078 6.682 1.626 7.337 1.227l.76-.462c.655-.398-1.563-1.588-4.973-2.666l-7.174-2.27c-3.41-1.079-6.682-1.626-7.337-1.228l-.76.463a.351.351 0 00-.054.04z" opacity=".879" fill="#fea"/><path d="M456.89 126.312c-.384-.498-1.586 1.668-2.75 4.983l-2.532 7.201c-1.203 3.422-1.897 6.735-1.557 7.428l.395.804c.34.693 1.583-1.504 2.786-4.926l2.53-7.201c1.203-3.422 1.898-6.735 1.557-7.428l-.395-.804a.34.34 0 00-.034-.057zm-4.898-6.561a.222.222 0 00-.038-.041l-.492-.384c-.424-.331-1.228 2.835-1.802 7.099l-1.21 8.972c-.573 4.264-.694 7.963-.27 8.294l.492.384c.424.331 1.227-2.835 1.802-7.099l1.208-8.972c.557-4.131.688-7.731.31-8.253zm-5.827 12.923c-.384-.498-1.586 1.668-2.751 4.983l-2.531 7.201c-1.203 3.422-1.897 6.735-1.557 7.428l.395.804c.34.693 1.583-1.504 2.785-4.926l2.531-7.201c1.203-3.422 1.897-6.735 1.557-7.428l-.395-.804a.4.4 0 00-.034-.057z" opacity=".879" fill="#ffe680"/><path d="M472.758 169.929c.556-.304-1.272-1.963-4.208-3.802l-6.377-3.995c-3.03-1.899-6.061-3.249-6.795-3.027l-.852.257c-.733.222 1.115 1.929 4.146 3.827l6.377 3.995c3.031 1.899 6.062 3.249 6.796 3.027l.851-.257a.332.332 0 00.062-.025zm7.293-3.838a.205.205 0 00.047-.032l.47-.438c.404-.377-2.464-1.813-6.43-3.22l-8.347-2.958c-3.966-1.406-7.485-2.234-7.89-1.857l-.469.438c-.404.377 2.464 1.813 6.43 3.219l8.347 2.959c3.842 1.362 7.264 2.182 7.842 1.889zm-11.18-8.504c.556-.303-1.272-1.963-4.208-3.802l-6.377-3.995c-3.03-1.898-6.061-3.248-6.795-3.027l-.851.257c-.734.222 1.114 1.929 4.145 3.827l6.377 3.996c3.031 1.898 6.062 3.248 6.796 3.026l.851-.257a.354.354 0 00.062-.025z" opacity=".879" fill="#fea"/><path d="M443.654 170.723c.555-.304-1.272-1.963-4.208-3.802l-6.377-3.995c-3.03-1.899-6.062-3.249-6.796-3.027l-.85.257c-.735.222 1.114 1.928 4.145 3.827l6.377 3.995c3.03 1.899 6.062 3.249 6.796 3.027l.851-.257a.332.332 0 00.061-.025zm7.293-3.839a.205.205 0 00.047-.032l.47-.437c.403-.378-2.464-1.813-6.43-3.22l-8.347-2.958c-3.966-1.406-7.485-2.235-7.89-1.857l-.469.438c-.404.377 2.464 1.812 6.43 3.219l8.347 2.959c3.842 1.362 7.264 2.182 7.842 1.888zm-11.18-8.503c.556-.304-1.272-1.963-4.208-3.802l-6.377-3.995c-3.03-1.899-6.062-3.249-6.795-3.027l-.852.257c-.733.222 1.115 1.929 4.146 3.827l6.377 3.995c3.031 1.899 6.062 3.249 6.796 3.027l.851-.257a.354.354 0 00.062-.025z" opacity=".879" fill="#ffe680"/><path d="M428.454 112.328c-.103-.625-2.273.552-4.978 2.715l-5.877 4.7c-2.793 2.234-5.068 4.65-5.101 5.415l-.039.889c-.033.766 2.189-.416 4.982-2.65l5.877-4.7c2.793-2.233 5.068-4.648 5.1-5.414l.04-.889a.359.359 0 00-.004-.066zm-1.214-8.152a.195.195 0 00-.015-.055l-.258-.587c-.223-.506-2.525 1.726-5.162 5.006l-5.55 6.9c-2.636 3.28-4.58 6.328-4.358 6.834l.259.588c.223.506 2.524-1.727 5.162-5.006l5.549-6.901c2.555-3.177 4.459-6.137 4.373-6.779zm-11.72 7.745c-.102-.625-2.272.552-4.977 2.716l-5.877 4.7c-2.793 2.233-5.068 4.648-5.101 5.414l-.039.889c-.033.766 2.189-.416 4.982-2.65l5.877-4.7c2.793-2.233 5.068-4.648 5.1-5.414l.04-.889c0-.023 0-.046-.004-.066z" opacity=".879" fill="#fea"/><path d="M380.408 129.422c.597.211.61-2.257.018-5.67l-1.287-7.415c-.612-3.523-1.632-6.68-2.287-7.079l-.76-.461c-.656-.398-.69 2.118-.079 5.641l1.288 7.415c.611 3.523 1.632 6.68 2.287 7.078l.76.462c.02.013.04.022.06.03zm7.728 2.863a.202.202 0 00.055.014l.64.057c.55.049-.297-3.044-1.9-6.935l-3.374-8.188c-1.604-3.89-3.338-7.062-3.889-7.111l-.64-.057c-.55-.048.297 3.045 1.9 6.935l3.375 8.188c1.553 3.77 3.229 6.863 3.833 7.097zm-1.14-14c.596.211.61-2.257.018-5.67l-1.288-7.415c-.612-3.523-1.632-6.68-2.287-7.079l-.76-.461c-.655-.398-.69 2.118-.078 5.641l1.287 7.415c.612 3.523 1.632 6.68 2.287 7.078l.76.462a.42.42 0 00.06.03zM376.72 158.45c-.34-.533-1.871 1.402-3.507 4.456l-3.554 6.633c-1.69 3.152-2.831 6.268-2.56 6.985l.314.832c.27.717 1.849-1.243 3.538-4.395l3.554-6.634c1.689-3.152 2.83-6.267 2.56-6.984l-.315-.832a.365.365 0 00-.03-.06zm-4.322-7.016a.21.21 0 00-.035-.045l-.469-.438c-.404-.378-1.642 2.58-2.776 6.633l-2.387 8.527c-1.134 4.053-1.722 7.62-1.319 7.998l.47.438c.403.378 1.641-2.58 2.775-6.633l2.387-8.528c1.1-3.926 1.685-7.395 1.354-7.952zm-7.727 11.73c-.34-.534-1.872 1.402-3.509 4.456l-3.554 6.633c-1.689 3.152-2.83 6.267-2.56 6.985l.315.831c.27.718 1.848-1.242 3.537-4.395l3.554-6.633c1.69-3.152 2.831-6.267 2.56-6.985l-.314-.832a.395.395 0 00-.03-.06z" opacity=".879" fill="#ffe680"/><path d="M377.243 235.545c.556-.303-1.271-1.962-4.207-3.801l-6.378-3.996c-3.03-1.898-6.061-3.248-6.795-3.026l-.851.257c-.734.221 1.115 1.928 4.145 3.827l6.378 3.995c3.03 1.898 6.061 3.248 6.795 3.027l.852-.258a.332.332 0 00.061-.025zm7.293-3.838a.205.205 0 00.047-.032l.47-.437c.404-.378-2.464-1.813-6.43-3.22l-8.346-2.958c-3.967-1.406-7.486-2.235-7.89-1.857l-.47.438c-.403.377 2.464 1.812 6.43 3.218l8.347 2.96c3.843 1.362 7.265 2.182 7.842 1.888zm-11.18-8.503c.556-.304-1.271-1.963-4.207-3.802l-6.377-3.995c-3.031-1.899-6.062-3.249-6.796-3.027l-.851.257c-.734.222 1.115 1.929 4.146 3.827l6.377 3.995c3.03 1.899 6.061 3.249 6.795 3.027l.852-.257a.354.354 0 00.061-.025zm53.153-37.724c-.198-.601-2.161.895-4.502 3.448l-5.085 5.548c-2.417 2.636-4.294 5.372-4.21 6.134l.1.883c.084.762 2.098-.746 4.515-3.382l5.085-5.548c2.416-2.636 4.294-5.372 4.209-6.134l-.099-.884a.345.345 0 00-.013-.065zm-2.453-7.868a.192.192 0 00-.022-.052l-.346-.54c-.297-.467-2.23 2.093-4.331 5.739l-4.423 7.671c-2.102 3.646-3.555 6.956-3.257 7.422l.345.54c.298.467 2.23-2.093 4.332-5.739l4.423-7.671c2.036-3.532 3.463-6.749 3.28-7.37zm-10.39 9.453c-.197-.602-2.16.894-4.501 3.448l-5.085 5.547c-2.417 2.637-4.294 5.372-4.209 6.134l.099.884c.084.762 2.098-.747 4.515-3.383l5.085-5.547c2.417-2.636 4.294-5.372 4.209-6.134l-.099-.884a.357.357 0 00-.013-.065z" opacity=".879" fill="#fea"/><path d="M446.035 240.837c.556-.303-1.272-1.963-4.208-3.802l-6.377-3.995c-3.03-1.898-6.061-3.248-6.795-3.027l-.851.257c-.734.222 1.114 1.929 4.145 3.828l6.377 3.995c3.031 1.898 6.062 3.248 6.796 3.026l.851-.257a.332.332 0 00.062-.025zm7.293-3.838a.205.205 0 00.047-.032l.47-.438c.404-.377-2.464-1.813-6.43-3.219l-8.347-2.959c-3.966-1.406-7.485-2.234-7.89-1.857l-.468.438c-.405.378 2.463 1.813 6.43 3.22l8.346 2.958c3.842 1.362 7.264 2.182 7.842 1.889zm-11.18-8.504c.556-.303-1.271-1.962-4.207-3.802l-6.378-3.995c-3.03-1.898-6.061-3.248-6.795-3.026l-.851.257c-.734.221 1.115 1.928 4.145 3.827l6.378 3.995c3.03 1.898 6.061 3.248 6.795 3.027l.851-.258a.354.354 0 00.062-.025z" opacity=".879" fill="#ffe680"/><path d="M471.88 191.51c-.012-.634-2.328.22-5.317 1.972l-6.49 3.809c-3.085 1.81-5.683 3.873-5.826 4.626l-.165.874c-.143.753 2.226-.097 5.31-1.907l6.49-3.808c3.085-1.81 5.683-3.874 5.826-4.627l.165-.874a.313.313 0 00.006-.066zm-.032-8.242a.18.18 0 00-.007-.057l-.171-.618c-.148-.533-2.747 1.346-5.827 4.213l-6.482 6.033c-3.08 2.868-5.442 5.605-5.294 6.138l.171.618c.148.533 2.747-1.346 5.827-4.213l6.482-6.033c2.984-2.778 5.293-5.433 5.3-6.081zm-12.709 5.983c-.012-.634-2.328.22-5.316 1.973l-6.49 3.808c-3.085 1.81-5.683 3.873-5.826 4.627l-.166.873c-.142.754 2.226-.097 5.31-1.907l6.491-3.808c3.084-1.81 5.683-3.873 5.825-4.626l.166-.874a.31.31 0 00.006-.066zm-49.035 37.769c-.197-.602-2.16.894-4.501 3.448l-5.085 5.547c-2.417 2.637-4.294 5.372-4.21 6.134l.1.884c.084.762 2.098-.747 4.515-3.383l5.085-5.547c2.416-2.636 4.293-5.372 4.209-6.134l-.1-.884a.345.345 0 00-.013-.065zm-2.452-7.868a.192.192 0 00-.023-.053l-.345-.54c-.298-.466-2.23 2.094-4.332 5.74l-4.423 7.67c-2.102 3.646-3.554 6.957-3.256 7.423l.345.54c.298.467 2.23-2.093 4.332-5.739l4.423-7.672c2.036-3.531 3.463-6.748 3.28-7.37zm-10.39 9.453c-.197-.602-2.16.894-4.501 3.448l-5.085 5.547c-2.417 2.636-4.294 5.372-4.21 6.134l.1.884c.084.762 2.098-.747 4.515-3.383l5.085-5.547c2.416-2.637 4.294-5.372 4.209-6.134l-.1-.884a.357.357 0 00-.012-.065zm15.224-87.045c-.198-.602-2.161.894-4.502 3.448l-5.085 5.547c-2.417 2.636-4.294 5.372-4.209 6.134l.099.884c.084.762 2.098-.747 4.515-3.383l5.085-5.548c2.417-2.636 4.294-5.372 4.209-6.134l-.099-.884a.345.345 0 00-.013-.065zm-2.452-7.869a.192.192 0 00-.023-.052l-.346-.54c-.297-.467-2.23 2.093-4.331 5.739l-4.423 7.671c-2.102 3.646-3.555 6.956-3.257 7.422l.345.541c.298.466 2.23-2.094 4.332-5.74l4.423-7.671c2.036-3.532 3.463-6.748 3.28-7.37zm-10.39 9.453c-.198-.602-2.16.895-4.502 3.448l-5.085 5.548c-2.417 2.636-4.294 5.372-4.209 6.134l.099.883c.085.762 2.098-.746 4.515-3.383l5.085-5.547c2.417-2.636 4.294-5.372 4.209-6.134l-.099-.884a.357.357 0 00-.013-.065zm-49.077 25.014c.462-.434-1.725-1.58-5.03-2.62l-7.178-2.259c-3.41-1.073-6.684-1.616-7.338-1.217l-.76.464c-.654.4 1.566 1.585 4.977 2.659l7.178 2.26c3.411 1.073 6.684 1.616 7.339 1.216l.759-.463a.342.342 0 00.053-.04zm6.09-5.552a.192.192 0 00.039-.043l.343-.542c.297-.467-2.84-1.134-7.033-1.495l-8.823-.76c-4.192-.362-7.806-.277-8.102.19l-.344.542c-.296.468 2.84 1.134 7.033 1.496l8.823.76c4.062.35 7.58.281 8.065-.148zm-12.96-5.412c.46-.434-1.726-1.58-5.03-2.62l-7.179-2.259c-3.41-1.074-6.684-1.616-7.339-1.217l-.758.463c-.655.4 1.564 1.586 4.976 2.66l7.178 2.259c3.411 1.074 6.684 1.616 7.339 1.217l.759-.464a.35.35 0 00.053-.04zm38.327 20.136c-.622-.119-.267 2.324.83 5.61l2.382 7.138c1.132 3.393 2.613 6.362 3.32 6.657l.821.343c.707.296.366-2.197-.766-5.59l-2.382-7.138c-1.133-3.392-2.613-6.361-3.32-6.657l-.822-.343a.345.345 0 00-.063-.02zm-8.07-1.674a.189.189 0 00-.056-.005l-.64.04c-.553.033.748 2.965 2.915 6.572l4.56 7.59c2.168 3.608 4.358 6.484 4.91 6.45l.64-.04c.552-.034-.749-2.965-2.916-6.572l-4.56-7.59c-2.1-3.495-4.22-6.304-4.853-6.445zm3.223 13.672c-.622-.12-.267 2.323.83 5.61l2.382 7.138c1.132 3.392 2.613 6.36 3.32 6.657l.821.342c.707.296.366-2.197-.766-5.59l-2.382-7.138c-1.133-3.392-2.614-6.361-3.321-6.657l-.82-.343a.332.332 0 00-.064-.02z" opacity=".879" fill="#fea"/><path d="M333.916 180.806c-.617.144.701 2.23 3.04 4.786l5.08 5.552c2.415 2.639 4.975 4.748 5.742 4.73l.889-.02c.766-.018-.56-2.156-2.974-4.795l-5.08-5.552c-2.415-2.638-4.976-4.748-5.742-4.73l-.89.021a.32.32 0 00-.065.008zm-8.053 1.753a.186.186 0 00-.054.018l-.569.297c-.49.255 1.89 2.404 5.338 4.818l7.254 5.078c3.447 2.414 6.618 4.15 7.108 3.895l.57-.297c.49-.256-1.891-2.404-5.339-4.818l-7.254-5.079c-3.34-2.338-6.419-4.04-7.054-3.912zm8.506 11.178c-.617.144.701 2.23 3.04 4.787l5.08 5.552c2.415 2.638 4.975 4.748 5.742 4.73l.889-.02c.766-.019-.56-2.157-2.974-4.795l-5.08-5.552c-2.415-2.638-4.976-4.748-5.742-4.73l-.89.02a.33.33 0 00-.065.008z" opacity=".879" fill="#ffe680"/><path d="M344.058 138.88c.359.522 1.823-1.465 3.354-4.573l3.325-6.75c1.58-3.209 2.615-6.361 2.32-7.069l-.343-.82c-.295-.708-1.805 1.305-3.385 4.513l-3.325 6.751c-1.58 3.208-2.615 6.36-2.32 7.068l.343.821c.009.022.02.042.031.059zm4.56 6.864a.21.21 0 00.037.044l.483.422c.417.364 1.553-2.635 2.548-6.724l2.094-8.604c.995-4.089 1.461-7.674 1.045-8.037l-.484-.423c-.416-.363-1.552 2.636-2.547 6.724l-2.095 8.605c-.964 3.96-1.43 7.449-1.08 7.993zm7.322-11.987c.359.522 1.823-1.465 3.354-4.572l3.325-6.751c1.58-3.208 2.615-6.361 2.32-7.069l-.343-.82c-.295-.708-1.805 1.305-3.385 4.513l-3.325 6.751c-1.58 3.208-2.615 6.36-2.32 7.068l.343.821c.009.022.02.042.031.059zm-21.571 59.98c.136.619 2.239-.674 4.823-2.982l5.612-5.013c2.667-2.383 4.808-4.918 4.8-5.684l-.01-.89c-.01-.766-2.164.534-4.83 2.917l-5.613 5.013c-2.667 2.382-4.808 4.917-4.8 5.684l.01.89a.33.33 0 00.008.065zm1.656 8.074a.18.18 0 00.018.054l.29.572c.25.493 2.427-1.861 4.881-5.28l5.166-7.192c2.454-3.418 4.23-6.567 3.98-7.06l-.29-.573c-.25-.493-2.427 1.861-4.882 5.28l-5.166 7.192c-2.378 3.312-4.118 6.37-3.997 7.006zm11.28-8.371c.136.618 2.239-.675 4.823-2.983l5.612-5.013c2.667-2.382 4.808-4.917 4.8-5.684l-.011-.889c-.009-.766-2.163.534-4.83 2.916l-5.612 5.013c-2.668 2.383-4.808 4.918-4.8 5.684l.01.89a.34.34 0 00.008.066zm35.13-82.02c.358.523 1.823-1.464 3.354-4.572l3.325-6.75c1.58-3.209 2.614-6.361 2.32-7.069l-.343-.82c-.295-.708-1.805 1.305-3.385 4.513l-3.326 6.75c-1.58 3.209-2.614 6.362-2.32 7.07l.343.82c.01.022.02.042.032.058zm4.56 6.865a.21.21 0 00.037.044l.483.422c.416.364 1.553-2.635 2.548-6.724l2.094-8.604c.995-4.089 1.46-7.674 1.044-8.038l-.483-.422c-.417-.364-1.553 2.635-2.548 6.724l-2.094 8.605c-.964 3.96-1.431 7.448-1.081 7.993zm7.322-11.987c.358.522 1.823-1.465 3.354-4.573l3.325-6.75c1.58-3.209 2.615-6.361 2.32-7.069l-.343-.82c-.295-.708-1.805 1.305-3.385 4.513l-3.326 6.751c-1.58 3.208-2.614 6.36-2.32 7.068l.343.821c.01.022.02.042.032.059z" opacity=".879" fill="#fea"/><path d="M364.01 135.431c-.622-.119-.267 2.324.83 5.61l2.382 7.138c1.132 3.393 2.613 6.362 3.32 6.657l.82.343c.708.295.366-2.197-.766-5.59l-2.382-7.138c-1.132-3.392-2.613-6.361-3.32-6.657l-.821-.343a.345.345 0 00-.063-.02zm-8.07-1.674a.189.189 0 00-.057-.005l-.64.04c-.552.033.749 2.965 2.916 6.572l4.56 7.59c2.168 3.608 4.357 6.484 4.91 6.45l.64-.04c.552-.034-.749-2.965-2.916-6.572l-4.561-7.591c-2.1-3.495-4.22-6.303-4.852-6.444zm3.223 13.672c-.622-.12-.267 2.323.83 5.61l2.382 7.138c1.132 3.392 2.613 6.36 3.32 6.656l.82.343c.708.296.366-2.197-.766-5.59l-2.382-7.138c-1.132-3.392-2.613-6.361-3.32-6.657l-.821-.343a.332.332 0 00-.063-.02zm67.346 38.051c-.198-.601-2.161.895-4.502 3.448l-5.085 5.548c-2.417 2.636-4.294 5.372-4.21 6.134l.1.883c.084.762 2.098-.746 4.515-3.382l5.085-5.548c2.416-2.636 4.294-5.372 4.209-6.134l-.099-.884a.345.345 0 00-.013-.065zm-2.453-7.868a.192.192 0 00-.022-.052l-.346-.54c-.297-.467-2.23 2.093-4.331 5.739l-4.423 7.671c-2.102 3.646-3.555 6.956-3.257 7.422l.345.54c.298.467 2.23-2.093 4.332-5.739l4.423-7.671c2.036-3.532 3.463-6.749 3.28-7.37zm-10.39 9.453c-.197-.602-2.16.894-4.501 3.448l-5.085 5.547c-2.417 2.637-4.294 5.372-4.209 6.134l.099.884c.084.762 2.098-.747 4.515-3.383l5.085-5.547c2.417-2.636 4.294-5.372 4.209-6.134l-.099-.884a.357.357 0 00-.013-.065zm14.079 25.192c-.444.451 1.785 1.512 5.127 2.424l7.26 1.982c3.45.942 6.741 1.358 7.38.934l.74-.492c.639-.424-1.624-1.524-5.074-2.466l-7.26-1.982c-3.45-.942-6.742-1.358-7.38-.934l-.74.492a.343.343 0 00-.053.042zm-5.873 5.782a.192.192 0 00-.035.044l-.323.555c-.278.478 2.882 1.024 7.086 1.224l8.845.42c4.203.2 7.811-.023 8.09-.501l.322-.555c.278-.478-2.882-1.024-7.086-1.224l-8.845-.42c-4.072-.195-7.585.01-8.054.457zm13.16 4.91c-.444.451 1.785 1.512 5.127 2.424l7.26 1.982c3.45.942 6.741 1.359 7.38.934l.74-.492c.64-.424-1.624-1.524-5.074-2.466l-7.26-1.982c-3.45-.941-6.741-1.358-7.38-.934l-.74.493a.354.354 0 00-.052.041zm-4.314-51.929c.136.618 2.239-.675 4.822-2.983l5.613-5.013c2.667-2.382 4.808-4.917 4.799-5.684l-.01-.889c-.01-.767-2.163.534-4.83 2.916l-5.613 5.013c-2.667 2.383-4.807 4.918-4.799 5.684l.01.89a.331.331 0 00.008.066zm1.655 8.073c.003.02.01.039.018.054l.29.573c.25.493 2.427-1.862 4.882-5.28l5.165-7.192c2.455-3.418 4.23-6.567 3.98-7.06l-.29-.573c-.25-.494-2.426 1.86-4.881 5.28l-5.166 7.192c-2.378 3.311-4.118 6.37-3.997 7.006zm11.28-8.37c.137.618 2.24-.675 4.823-2.983l5.613-5.013c2.667-2.382 4.807-4.918 4.799-5.684l-.01-.89c-.01-.766-2.163.535-4.83 2.917l-5.613 5.013c-2.667 2.382-4.807 4.917-4.799 5.684l.01.89c0 .023.002.046.007.066z" opacity=".879" fill="#fea"/></svg>