<svg xmlns="http://www.w3.org/2000/svg" width="210mm" height="297mm" viewBox="0 0 210 297"><path d="M41.942 155.546l-1.84 3.269c-1.519 2.698 1.6 5.484 5.793 7.844 4.194 2.36 8.793 2.089 10.312-.61l-.706-1.985c-4.87.59-5.952.255-9.526-3.893-1.654-1.921-1.943-3.908-4.033-4.625z" fill="#de8787"/><path d="M43.872 180.277l-1.84-3.269c-1.518-2.698 1.6-5.484 5.794-7.845 4.193-2.36 8.792-2.088 10.311.61l-.706 1.986c-4.87-.59-5.952-.255-9.525 3.893-1.655 1.92-1.944 3.907-4.034 4.625z" fill="#de8787"/><rect width="11.707" height="9.438" x="171.206" y="8.822" ry="3.311" transform="matrix(.4033 .91507 -.9511 .30889 0 0)" rx="5.586" fill="#e9afaf"/><path d="M63.87 159.139c-2.116-1.364-4.389-1.766-5.713-.846l-2.711 1.882a2.24 2.24 0 00-.813 1.023c1.812-.009 4.14 1.105 5.976 3.013l.437.454c1.98 2.058 2.78 4.411 2.175 5.92.676-.003 1.281-.163 1.761-.496l2.712-1.883c1.766-1.226 1.158-4.322-1.363-6.943l-.436-.453a11.366 11.366 0 00-2.024-1.671z" fill="#ffd5d5"/><path d="M67.093 154.21c-2.436-1.258-4.873-1.356-6.1-.052l-2.51 2.67a2.7 2.7 0 00-.675 1.342c1.888-.31 4.504.62 6.739 2.567l.531.463c2.412 2.103 3.641 4.747 3.265 6.628.705-.116 1.308-.404 1.753-.877l2.51-2.67c1.635-1.74.48-5.294-2.59-7.97l-.53-.463a12.163 12.163 0 00-2.393-1.637z" fill="#e9afaf"/><path d="M66.92 149.06c-2.929-.405-5.409.4-6.134 2.214l-1.484 3.713a3.04 3.04 0 00-.159 1.647c1.773-1.025 4.753-1.03 7.746.165l.71.285c3.23 1.29 5.483 3.586 5.832 5.683.662-.383 1.156-.907 1.419-1.565l1.484-3.712c.967-2.419-1.563-5.688-5.673-7.331l-.711-.285a12.993 12.993 0 00-3.03-.814z" fill="#ffd5d5"/><path d="M66.568 143.76c-2.946.256-5.185 1.591-5.49 3.52l-.622 3.95a3.04 3.04 0 00.212 1.642c1.5-1.393 4.405-2.061 7.588-1.56l.757.12c3.435.542 6.142 2.279 6.948 4.246.56-.52.925-1.14 1.035-1.84l.623-3.95c.406-2.573-2.788-5.199-7.16-5.888l-.756-.12a12.992 12.992 0 00-3.135-.12z" fill="#e9afaf"/><path d="M64.583 138.378c-2.78 1.008-4.599 2.876-4.394 4.818l.417 3.977a3.04 3.04 0 00.628 1.531c1.09-1.733 3.724-3.127 6.93-3.464l.761-.08c3.459-.363 6.522.616 7.809 2.31.407-.648.6-1.342.525-2.046l-.417-3.977c-.273-2.59-4.035-4.303-8.437-3.84l-.762.08c-1.1.115-2.134.355-3.06.691z" fill="#ffd5d5"/><path d="M61.718 135.771c-2.554 1.547-3.916 3.632-3.214 5.307l1.437 3.429c.2.478.553.883 1.026 1.21.66-1.793 2.967-3.65 6.122-4.701l.75-.25c3.404-1.136 6.751-.987 8.484.212.246-.67.264-1.33.01-1.938l-1.438-3.428c-.936-2.234-5.177-2.868-9.51-1.424l-.75.25a14.5 14.5 0 00-2.917 1.333z" fill="#e9afaf"/></svg>