<svg xmlns="http://www.w3.org/2000/svg" width="210mm" height="297mm" viewBox="0 0 210 297"><path d="M155.477 115.902c2.693 0 4.86 2.066 4.86 4.63 0 2.566-2.167 4.63-4.86 4.63h-9.457l-3.735 13.462-.077-.015-8.004 30.842v-1.161h-.06c-.68 5.234-5.338 9.26-11.022 9.26H81.69a12.832 12.832 0 0111.035 12.69 12.832 12.832 0 01-12.833 12.833A12.832 12.832 0 0167.06 190.24a12.832 12.832 0 0111.017-12.69H75.91c-5.684 0-10.34-4.027-11.02-9.261h-.09v1.161l-10.706-41.255h74.065l-2.759 9.79H65.481l5.107 19.68 2.947 11.356v-.874h52.212v.874l2.916-11.235 5.138-19.802h-.062l6.061-21.51a5.04 5.04 0 012.346-.573zm-37.486 61.77a12.832 12.832 0 0112.833 12.833 12.832 12.832 0 01-12.833 12.832 12.832 12.832 0 01-12.832-12.832 12.832 12.832 0 0112.832-12.832zm-37.967 7.41a5.027 5.027 0 00-5.028 5.026 5.027 5.027 0 005.028 5.027 5.027 5.027 0 005.027-5.027 5.027 5.027 0 00-5.027-5.027zm38.1.264a5.027 5.027 0 00-5.027 5.027 5.027 5.027 0 005.027 5.027 5.027 5.027 0 005.027-5.027 5.027 5.027 0 00-5.027-5.027z" fill="#4c000a"/></svg>