<svg xmlns="http://www.w3.org/2000/svg" width="210mm" height="297mm" viewBox="0 0 210 297"><rect width="401.637" height="214.842" x="-415.925" y="19.717" ry="4.63" fill="#870d1d"/><path d="M-342.069 87.6c-23.243 0-41.955 18.713-41.955 41.956 0 23.244 18.712 41.956 41.955 41.956h232.078c23.244 0 41.955-18.712 41.955-41.956 0-23.243-18.711-41.955-41.955-41.955h-232.078zm.757 6.805h230.729c19.474 0 35.151 15.677 35.151 35.151 0 19.475-15.677 35.152-35.151 35.152h-230.73c-19.474 0-35.151-15.677-35.151-35.152 0-19.474 15.677-35.151 35.152-35.151zm65.223 5.537v7.55h9.478v-7.55h-9.478zm-54.135.388v57.648h8.85V136.49h8.852c4.768 0 8.718-.49 11.847-1.47 3.13-1.007 5.841-2.505 8.136-4.492a16.845 16.845 0 004.291-5.652c1.044-2.194 1.565-4.569 1.565-7.124 0-3.355-.7-6.13-2.101-8.324-1.371-2.194-3.323-4.027-5.856-5.498-2.146-1.239-4.605-2.142-7.377-2.71-2.771-.593-6.154-.89-10.147-.89h-18.06zm8.85 6.581h8.763c2.801 0 5.11.181 6.929.542 1.848.336 3.487.904 4.917 1.704 1.64.93 2.861 2.13 3.666 3.6.804 1.472 1.207 3.2 1.207 5.188 0 1.704-.298 3.24-.894 4.608-.566 1.368-1.55 2.671-2.95 3.91-1.401 1.213-3.22 2.103-5.455 2.671-2.235.542-5.14.814-8.716.814h-7.466V106.91zm184.225 6.776c-3.01 0-6.065.232-9.165.697-3.099.464-5.468.89-7.107 1.277v7.395h.447c2.89-.955 5.692-1.678 8.404-2.168 2.712-.517 5.17-.774 7.376-.774 1.818 0 3.562.103 5.23.31 1.67.206 3.1.606 4.292 1.2 1.252.619 2.205 1.47 2.861 2.555.685 1.084 1.028 2.452 1.028 4.104v1.123c-4.887.206-9.462.516-13.724.929-4.262.413-7.912 1.2-10.952 2.361-3.01 1.162-5.335 2.762-6.974 4.801-1.61 2.013-2.414 4.66-2.414 7.937 0 4 1.565 7.291 4.694 9.872 3.13 2.581 6.944 3.872 11.444 3.872 2.444 0 4.575-.206 6.393-.62 1.818-.386 3.427-.877 4.828-1.47a22.556 22.556 0 003.665-1.859c1.282-.8 2.295-1.42 3.04-1.859v4.608h8.36v-29.347c0-2.788-.492-5.123-1.475-7.007-.984-1.885-2.414-3.42-4.292-4.608-1.907-1.213-4.172-2.064-6.795-2.555-2.593-.516-5.648-.774-9.164-.774zm-138.403 1.045v43.246h8.404v-43.246h-8.404zm21.637 0v6.079h28.476l-29.102 31.785v5.382h40.323v-6.156h-29.997l29.236-31.902v-5.188h-38.936zm48.1 0v6.079h28.477l-29.102 31.785v5.382h40.323v-6.156h-29.997l29.237-31.902v-5.188h-38.937zm82.032 20.558v12.041a38.773 38.773 0 01-6.795 3.6c-2.443.981-5.14 1.472-8.091 1.472-3.547 0-6.184-.62-7.913-1.859-1.728-1.264-2.592-3.135-2.592-5.613 0-2.194.745-3.911 2.235-5.15 1.49-1.265 3.442-2.194 5.856-2.787 2.027-.49 4.768-.865 8.225-1.123a392.57 392.57 0 019.075-.58zm84.398-414.402c-23.244 0-41.955 18.713-41.955 41.956 0 23.243 18.711 41.956 41.955 41.956h232.077c23.244 0 41.956-18.713 41.956-41.956 0-23.243-18.712-41.956-41.956-41.956zm.756 6.804H192.1c19.474 0 35.152 15.678 35.152 35.152s-15.678 35.152-35.152 35.152H-38.63c-19.473 0-35.151-15.678-35.151-35.152s15.678-35.152 35.152-35.152z" fill="#f9f0ed"/></svg>